<?xml version="1.0" encoding="UTF-8" standalone="no"?>
<!-- Created with Inkscape (http://www.inkscape.org/) -->

<svg
   xmlns:dc="http://purl.org/dc/elements/1.1/"
   xmlns:cc="http://creativecommons.org/ns#"
   xmlns:rdf="http://www.w3.org/1999/02/22-rdf-syntax-ns#"
   xmlns:svg="http://www.w3.org/2000/svg"
   xmlns="http://www.w3.org/2000/svg"
   xmlns:sodipodi="http://sodipodi.sourceforge.net/DTD/sodipodi-0.dtd"
   xmlns:inkscape="http://www.inkscape.org/namespaces/inkscape"
   width="388.55994mm"
   height="189.6443mm"
   viewBox="0 0 1376.7872 671.968"
   id="svg3561"
   version="1.1"
   inkscape:version="0.91 r13725"
   sodipodi:docname="london_big.svg">
  <defs
     id="defs3563">
    <style type="text/css" id="style3464">
      .land
      {
        stroke:white;
        stroke-opacity: 0.3;
        stroke-width:0.1;
      }
    </style>
  </defs>
  <sodipodi:namedview
     id="base"
     pagecolor="#ffffff"
     bordercolor="#666666"
     borderopacity="1.0"
     inkscape:pageopacity="0.0"
     inkscape:pageshadow="2"
     inkscape:zoom="1"
     inkscape:cx="657.61067"
     inkscape:cy="416.85335"
     inkscape:document-units="px"
     inkscape:current-layer="out"
     showgrid="false"
     inkscape:window-width="1920"
     inkscape:window-height="897"
     inkscape:window-x="0"
     inkscape:window-y="31"
     inkscape:window-maximized="1"
     fit-margin-top="0"
     fit-margin-left="0"
     fit-margin-right="0"
     fit-margin-bottom="0" />
  <metadata
     id="metadata3566">
    <rdf:RDF>
      <cc:Work
         rdf:about="">
        <dc:format>image/svg+xml</dc:format>
        <dc:type
           rdf:resource="http://purl.org/dc/dcmitype/StillImage" />
        <dc:title />
      </cc:Work>
    </rdf:RDF>
  </metadata>
  <g
     inkscape:label="Layer 1"
     inkscape:groupmode="layer"
     transform="translate(322.6788,163.6218) matrix(32,0,0,32,-22154.426,-15326.073)"
     id="out">
    <path
       class="land" 
       title="Enfield"
       d="m 699.71415,474.53193 -0.75074,0.47695 -1.41375,0.22557 -0.88001,0.42366 -0.59143,-0.74433 -0.49054,-0.18351 -0.36059,0.24704 -0.46167,1.21169 -2.04743,0.31222 0.0163,0.27142 0.0229,0.10159 0.0105,0.0724 0.0118,0.0343 0.0692,0.10284 0.08,0.10015 0.0283,0.0282 0.0642,0.0543 0.0289,0.028 0.034,0.0415 0.12073,0.11048 0.0792,0.10028 0.17944,0.24532 0.0792,0.10051 0.11969,0.11092 0.0583,0.0705 0.12696,0.12606 0.14264,0.11668 0.12036,0.10999 0.23144,0.16256 0.11658,0.0907 0.11072,0.0797 0.089,0.0735 0.26654,0.17983 0.0641,0.0546 0.0347,0.041 0.12043,0.11073 0.0774,0.10065 0.0365,0.076 0.008,0.0353 0.002,0.0367 -0.002,0.18714 0.0218,0.1044 0.0103,0.0719 0.0112,0.0347 0.0377,0.061 0.0348,0.0664 0.0513,0.058 0.0517,0.0475 0.0738,0.0515 0.12115,0.0722 0.0236,0.0122 0.0442,0.0104 0.0497,0.004 0.05,-0.002 0.0441,-0.0104 0.13824,-0.0705 0.0569,-0.0147 0.0437,-0.004 0.0356,0.004 0.0353,0.01 0.0427,0.0182 0.0809,0.0472 0.11285,0.0783 0.21009,0.17497 0.0749,0.0572 0.3825,0.2511 0.0809,0.0626 0.0983,0.0872 0.0478,0.0314 0.21839,-0.0144 0.13305,-0.0124 0.10523,-0.0149 0.36127,-0.0429 0.12133,-0.028 0.0465,-0.0176 0.0864,-0.0448 0.0798,-0.0503 0.0361,-0.0268 0.0314,-0.0278 0.12457,-0.14236 0.0296,-0.0285 0.12524,-0.10091 0.082,-0.0485 0.0836,-0.0349 0.21826,-0.061 0.21277,-0.0537 0.0388,-0.0135 0.0508,-0.0229 0.0435,-0.154 0.0125,-0.0717 0.0109,-0.10007 0.0145,-0.0625 0.044,-0.12745 0.0397,-0.0941 0.0179,-0.0287 0.0292,-0.0271 0.0373,-0.0236 0.0433,-0.0191 0.16626,-0.0475 0.14758,-0.0261 0.0472,-0.0163 0.0437,-0.0208 0.0406,-0.0239 0.036,-0.026 0.0287,-0.0284 0.0177,-0.0296 0.037,-0.0944 0.007,-0.0311 10e-4,-0.0317 -0.004,-0.0314 -0.0168,-0.0682 -0.0117,-0.0724 -0.0116,-0.0344 -0.0358,-0.0618 -0.0117,-0.0347 -0.0126,-0.0721 -0.0475,-0.14505 -9.8e-4,-0.0229 0.004,-0.0226 0.0233,-0.0543 0.0335,-0.0515 0.0339,-0.036 0.0328,-0.0155 0.0268,-0.003 0.0266,0.004 0.032,0.0158 0.0174,0.0167 0.0606,0.0788 0.0406,0.0898 0.04,0.0407 0.0393,0.0311 0.026,0.0105 0.0295,0.008 0.0439,0.007 0.0324,-0.001 0.045,-0.0105 0.0346,-0.0131 0.0313,-0.0166 0.0265,-0.0202 0.0219,-0.0227 0.0776,-0.1051 0.0134,-0.0338 0.008,-0.035 0.0124,-0.1088 0.008,-0.0358 0.0146,-0.035 0.0667,-0.0879 0.0215,-0.0373 0.0331,-0.0841 0.25311,0.0365 c -1.72627,-1.96361 -0.27871,-2.73869 -1.72595,-3.53128 z"
       id="LDN-3"/>
    <path
       class="land"
       title="Barking and Dagenhma"
       id="LDN-0"
       inkscape:connector-curvature="0"
       d="m 716.4895,483.2577 -0.3871,-0.0526 -0.0385,-0.007 -0.0989,-0.027 -0.1468,-0.0239 -0.1728,-0.0327 -0.0499,-0.006 -0.208,-0.0121 -0.0497,-0.006 -0.1734,-0.0315 -0.0497,-0.006 -0.2082,-0.012 -0.3593,-0.0462 -0.1166,-0.006 -0.366,-0.009 -0.29,0.0348 -0.1785,0.0328 -0.1144,0.0106 -0.1283,0.0165 -0.1287,0.002 -0.2616,-0.007 0.0494,-0.0912 0.017,-0.042 0.0163,-0.0752 0.008,-0.1084 -0.005,-0.0682 -0.0103,-0.0321 -0.0854,-0.1354 -0.0352,-0.0438 -0.024,-0.0205 -0.0373,-0.0216 -0.1529,-0.0556 -0.115,-0.0339 -0.0478,-0.0138 -0.1439,-0.0266 -0.1604,-0.0502 -0.0436,-0.0193 -0.0409,-0.0225 -0.0747,-0.0504 -0.0325,-0.0271 -0.0788,-0.0763 -0.0709,-0.078 -0.0711,-0.1028 -0.0123,-0.0302 -0.0279,-0.0959 -0.007,-0.0369 -0.0116,-0.2915 0.3315,-0.0737 0.133,-0.0462 0.2188,-0.0836 0.1653,-0.0439 0.0482,-0.005 0.0488,9e-4 0.0475,0.007 0.2081,0.063 0.0461,0.011 0.0336,0.002 0.0334,-0.003 0.0447,-0.0128 0.042,-0.0196 0.0392,-0.0237 0.0348,-0.0262 0.0281,-0.0287 0.0516,-0.0891 0.0289,-0.0276 0.0365,-0.0238 0.0423,-0.0193 0.0328,-0.0106 0.13,-0.0357 0.0483,-0.006 0.0491,-0.001 0.1795,0.007 0.1424,0.0158 0.1166,0.002 0.0572,-0.004 0.1245,-0.0222 0.0382,-0.0114 0.0348,-0.0146 0.0306,-0.0182 0.0598,-0.0476 0.0254,-0.0293 0.0151,-0.0325 0.008,-0.0345 0.0156,-0.1418 0.0527,-0.1599 0.0139,-0.0322 0.0285,-0.1067 0.0145,-0.0342 0.0422,-0.0604 0.0398,-0.091 0.0566,-0.1073 0.0397,-0.0909 0.0422,-0.0605 0.0147,-0.0342 0.0176,-0.0714 0.0324,-0.0991 0.0205,-0.1303 0.0315,-0.0995 0.0117,-0.1112 0.0147,-0.3397 0.011,-0.0734 0.0139,-0.0347 0.0765,-0.1028 0.0211,-0.0227 0.026,-0.0207 0.0309,-0.0181 0.0794,-0.0356 0.0482,-0.0162 0.1153,-0.0236 0.0563,-0.0156 0.0563,-0.019 0.2389,-0.0978 -0.059,0.2293 -0.0282,0.136 -0.032,0.0925 -0.0195,0.0865 -0.0101,0.0278 -0.0552,0.1081 -0.0112,0.0334 -0.007,0.035 -0.006,0.0709 0.005,0.0697 0.0116,0.0328 0.0216,0.0296 0.1748,0.1828 0.0718,0.1022 0.0301,0.0921 0.0448,0.1088 0.0301,0.0919 0.1132,0.1627 0.0344,0.0666 0.0233,0.0297 0.0462,0.0494 0.0317,0.0278 0.0749,0.0508 0.0416,0.0217 0.045,0.0162 0.0349,0.006 0.0363,0.003 0.0366,-9e-4 0.0361,-0.004 0.0488,-0.0122 0.1175,-0.0327 0.0949,-0.0313 0.0685,-0.0193 0.3431,-0.1304 0.1175,-0.0328 0.0481,-0.0105 0.0349,-0.002 0.0346,0.002 0.0363,0.009 0.0322,0.0139 0.0266,0.0187 0.0218,0.0216 0.0205,0.0297 0.008,0.0306 4e-4,0.0315 -0.0144,0.0629 -0.002,0.0223 0.004,0.0222 0.016,0.0297 0.035,0.0506 0.0157,0.0211 0.0289,0.0279 0.1457,0.1052 0.0324,0.0274 0.0466,0.0486 0.022,0.03 0.0115,0.0316 0.006,0.067 -0.008,0.1029 -0.008,0.0331 -0.0139,0.0313 -0.0229,0.03 -0.0604,0.0705 -0.1324,0.1079 -0.0376,0.0406 -0.0317,0.0272 -0.1061,0.079 -0.0544,0.0465 -0.1104,0.1032 -0.0331,0.042 -0.0531,0.0573 -0.0321,0.0421 -0.053,0.0576 -0.0324,0.0419 -0.053,0.0575 -0.0324,0.042 -0.1391,0.1568 -0.0808,0.1006 -0.0442,0.0898 -0.0429,0.0603 -0.0121,0.0272 -0.024,0.0849 -0.0121,0.0273 -0.0418,0.0606 -0.012,0.0271 -0.0323,0.1135 -0.054,0.1082 -0.0109,0.0341 -0.0122,0.1081 -0.0184,0.3737 z" />
    <path
       class="land"
       title="Bexley"
       id="LDN-1"
       inkscape:connector-curvature="0"
       d="m 719.5134,484.1586 -0.2991,0.1674 -0.1148,0.4157 0.3586,0.2297 -0.631,0.8463 -1.5634,0.9899 -1.0469,1.0611 0.2807,0.9639 -0.3052,-0.1482 -0.3896,-0.1892 -0.2884,-0.1657 -0.1545,-0.0787 -0.1624,-0.0719 -0.1248,-0.0428 -0.0536,-0.0101 -0.2222,-0.025 -0.1412,-0.009 -0.4388,-0.005 -0.1439,0.002 -0.121,0.007 -0.0728,-9e-4 -0.199,-0.0216 -0.1489,-0.0234 -0.0474,-0.009 -0.0475,-0.0139 -0.1111,-0.0378 -0.0827,-0.0419 -0.1334,-0.0924 -0.0315,-0.0183 -0.1583,-0.0853 -0.162,-0.077 -0.0674,-0.0597 -0.0887,-0.0894 -0.0796,-0.0531 -0.1085,-0.0858 -0.1486,-0.0977 -0.2052,-0.1631 0.0211,-0.0637 0.0519,-0.0837 0.1815,-0.1972 0.1001,-0.1225 0.0794,-0.127 0.0378,-0.0768 0.0126,-0.0418 0.0145,-0.1319 4e-4,-0.1771 -0.007,-0.0427 -0.085,-0.3206 -0.0326,-0.1812 -0.002,-0.0408 0.004,-0.0823 0.0198,-0.0797 0.0299,-0.0533 0.0413,-0.0505 0.0817,-0.0743 0.1104,-0.0839 0.1809,-0.0881 0.0914,-0.035 0.1587,-0.0301 0.2039,-0.0214 0.1303,-0.005 0.3369,0.003 0.0657,-0.002 0.0632,-0.006 0.0843,-0.0179 0.0319,-0.0101 0.0396,-0.0193 0.0476,-0.0396 0.02,-0.0284 0.01,-0.0433 -0.0157,-0.094 -0.0485,-0.1577 -0.0421,-0.1104 -0.0112,-0.0799 0.009,-0.1228 0.0313,-0.1137 0.0274,-0.2113 0.0304,-0.112 0.007,-0.0779 -0.007,-0.0771 -0.0469,-0.2479 -0.0153,-0.1638 -0.0372,-0.202 0.366,0.009 0.1166,0.006 0.3593,0.0462 0.2082,0.012 0.0497,0.006 0.1734,0.0315 0.0497,0.006 0.208,0.0121 0.0499,0.006 0.1728,0.0327 0.1468,0.0239 0.0989,0.027 0.0385,0.007 0.3871,0.0526 0.2569,0.0646 0.1727,0.0565 0.0451,0.0199 0.0414,0.0231 0.073,0.0514 0.0289,0.0281 0.0711,0.103 0.0113,0.037 0.01,0.117 0.0457,0.1982 0.0162,0.1552 0.0116,0.0371 0.0552,0.0816 0.0445,0.0477 0.1099,0.0761 0.0227,0.0144 0.0266,0.0118 0.0734,0.0252 0.08,0.0227 0.1214,0.0244 0.0537,0.006 0.1122,0.005 0.1701,-0.002 0.1697,-0.0146 0.1896,-0.007 0.062,-0.006 0.0918,-0.015 0.1029,-0.0223 0.0621,-0.0176 0.2657,-0.085 0.4269,-0.1365 z" />
    <path
       class="land"
       title="Bromley"
       id="LDN-2"
       inkscape:connector-curvature="0"
       d="m 712.0593,487.1254 0.2052,0.1631 0.1486,0.0977 0.1085,0.0858 0.0796,0.0531 0.0887,0.0894 0.0674,0.0597 0.162,0.077 0.1583,0.0853 0.0315,0.0183 0.1334,0.0924 0.0827,0.0419 0.1111,0.0378 0.0475,0.0139 0.0474,0.009 0.1489,0.0234 0.199,0.0216 0.0728,9e-4 0.121,-0.007 0.1439,-0.002 0.4388,0.005 0.1412,0.009 0.2222,0.025 0.0536,0.0101 0.1248,0.0428 0.1624,0.0719 0.1545,0.0787 0.2884,0.1657 0.3896,0.1892 0.3052,0.1482 0.1495,0.5136 -0.7171,1.7499 -1.2478,0.7029 -0.5737,0.8747 -1.2048,0.6748 -0.1433,1.1759 -1.2907,0.3015 -0.7459,-0.3872 -0.3155,-0.2587 -1.3338,0.2727 -0.3155,-1.4913 -0.1664,-0.1108 -0.2532,-0.4995 -0.0816,-0.1609 -0.0342,-0.0977 -0.0396,-0.0621 -0.0349,-0.0914 -0.0712,-0.1027 -0.0464,-0.0588 -0.0412,-0.0747 -0.0633,-0.1438 -0.0714,-0.1022 -0.0479,-0.0584 -0.029,-0.0426 -0.1228,-0.1354 -0.0288,-0.0425 -0.0931,-0.1206 -0.1834,-0.1921 -0.0288,-0.0425 -0.0477,-0.0587 -0.0279,-0.0427 -0.0474,-0.0588 -0.028,-0.0427 -0.0473,-0.0587 -0.028,-0.0427 -0.0473,-0.0588 -0.0279,-0.0427 -0.0785,-0.1006 -0.0217,-0.0228 -0.0763,-0.0657 -0.022,-0.0226 -0.0479,-0.0614 -0.0738,-0.0771 -0.0844,-0.0792 -0.0824,-0.0642 -0.0702,-0.0622 -0.0757,-0.0596 -0.0681,-0.06 -0.0858,-0.0424 -0.1697,-0.0971 -0.1278,-0.0616 -0.1478,-0.0654 -0.1208,-0.048 -0.0668,-0.0198 -0.0917,-0.0323 -0.0674,-0.0193 -0.1581,-0.0534 -0.0334,-0.0135 -0.1606,-0.0836 -0.1187,-0.0898 -0.1313,-0.091 -0.0587,-0.0473 -0.0597,-0.0571 -0.3255,-0.3241 -0.0712,-0.0775 -0.0462,-0.0619 -0.168,-0.174 -0.0927,-0.1294 -0.0421,-0.1101 -0.004,-0.0272 0.002,-0.0583 0.002,-0.021 0.003,-0.01 0.005,-0.009 0.028,-0.0286 0.005,-0.009 0.004,-0.0195 0.003,-0.0413 0.005,-0.0209 0.006,-0.0101 0.008,-0.008 0.0227,-0.0146 0.0408,-0.012 0.035,-0.0126 0.0649,-0.0342 0.0129,-0.006 0.0135,-0.005 0.0146,-0.002 0.0628,-0.004 0.0175,-0.003 0.0527,-0.012 0.0188,-0.003 0.0355,-0.002 0.0385,3e-4 0.034,0.004 0.1791,0.036 0.3063,0.0553 0.1506,0.0123 1.2325,0.0149 0.2277,-0.002 0.1615,-0.006 0.1854,0.0181 0.0975,0.0189 0.0682,0.0183 0.231,0.0927 0.0475,0.0246 0.1887,0.1143 0.0956,0.0389 0.122,0.0427 0.12,0.0265 0.0492,0.005 0.0501,0.002 0.0868,-0.005 0.0354,-0.006 0.0472,-0.0147 0.0443,-0.0193 0.0416,-0.0224 0.0753,-0.0506 0.0316,-0.0275 0.129,-0.1413 0.1761,-0.1543 0.0429,-0.0324 0.0546,-0.0246 0.1219,-0.0403 0.0487,-0.0115 0.0587,-0.008 0.0611,-0.003 0.1236,0.004 0.0597,0.007 0.121,0.0268 0.0953,0.0298 0.2352,0.0646 0.0492,0.0116 0.0609,0.008 0.0623,0.002 0.0614,-0.004 0.0833,-0.0174 0.032,-0.0102 0.0401,-0.0194 0.0504,-0.0403 0.0233,-0.0289 0.0147,-0.0335 0.006,-0.035 -0.002,-0.0353 -0.01,-0.0345 -0.0174,-0.0311 -0.0543,-0.0727 -0.0408,-0.0382 -0.0989,-0.0719 -0.4876,-0.3213 -0.2525,-0.1931 0.483,-0.0567 0.1203,-0.005 0.0586,0.003 0.0562,0.007 0.0854,0.0183 0.0795,0.026 0.2141,0.0908 0.2048,0.1277 0.2034,0.1329 0.1425,0.1028 0.0381,0.0366 0.1139,0.1441 0.0279,0.0289 0.066,0.0552 0.0455,0.0329 0.0505,0.028 0.0507,0.0167 0.055,0.009 0.0711,-10e-4 0.0386,-0.007 0.0366,-0.0114 0.1375,-0.0646 0.1165,-0.0649 0.0514,-0.0398 0.2834,-0.2746 z" />
    <path
       class="land"
       title="Havering"
       id="LDN-4"
       inkscape:connector-curvature="0"
       d="m 724.4303,480.5993 0.8364,0.93 -2.8971,0.6739 -0.3729,0.5309 -1.2909,-0.1726 -0.2868,1.0901 -0.9056,0.507 -0.4269,0.1365 -0.2657,0.085 -0.0621,0.0176 -0.1029,0.0223 -0.0918,0.015 -0.062,0.006 -0.1896,0.007 -0.1697,0.0146 -0.1701,0.002 -0.1122,-0.005 -0.0537,-0.006 -0.1214,-0.0244 -0.08,-0.0227 -0.0734,-0.0252 -0.0266,-0.0118 -0.0227,-0.0144 -0.1099,-0.0761 -0.0445,-0.0477 -0.0552,-0.0816 -0.0116,-0.0371 -0.0162,-0.1552 -0.0457,-0.1982 -0.01,-0.117 -0.0113,-0.037 -0.0711,-0.103 -0.0289,-0.0281 -0.073,-0.0514 -0.0414,-0.0231 -0.0451,-0.0199 -0.1727,-0.0565 -0.2569,-0.0646 0.0184,-0.3737 0.0122,-0.1081 0.0109,-0.0341 0.054,-0.1082 0.0323,-0.1135 0.012,-0.0271 0.0418,-0.0606 0.0121,-0.0273 0.024,-0.0849 0.0121,-0.0272 0.0429,-0.0603 0.0442,-0.0898 0.0808,-0.1006 0.1391,-0.1568 0.0324,-0.042 0.053,-0.0575 0.0324,-0.0419 0.053,-0.0576 0.0321,-0.0421 0.0531,-0.0573 0.0331,-0.042 0.1104,-0.1032 0.0544,-0.0465 0.1061,-0.079 0.0317,-0.0272 0.0376,-0.0406 0.1324,-0.1079 0.0604,-0.0705 0.0229,-0.03 0.0139,-0.0313 0.008,-0.0331 0.008,-0.1029 -0.006,-0.067 -0.0115,-0.0316 -0.022,-0.03 -0.0466,-0.0486 -0.0324,-0.0274 -0.1457,-0.1052 -0.0289,-0.0279 -0.0157,-0.0211 -0.035,-0.0506 -0.016,-0.0297 -0.004,-0.0222 0.002,-0.0223 0.0144,-0.0629 -4e-4,-0.0315 -0.008,-0.0306 -0.0205,-0.0297 -0.0218,-0.0216 -0.0266,-0.0187 -0.0322,-0.0139 -0.0363,-0.009 -0.0346,-0.002 -0.0349,0.002 -0.0481,0.0105 -0.1175,0.0328 -0.3431,0.1304 -0.0685,0.0193 -0.0949,0.0313 -0.1175,0.0327 -0.0488,0.0122 -0.0361,0.004 -0.0366,9e-4 -0.0363,-0.003 -0.0349,-0.006 -0.045,-0.0162 -0.0416,-0.0217 -0.0749,-0.0508 -0.0317,-0.0278 -0.0462,-0.0494 -0.0233,-0.0297 -0.0344,-0.0666 -0.1132,-0.1627 -0.0301,-0.0919 -0.0448,-0.1088 -0.0301,-0.0921 -0.0718,-0.1022 -0.1748,-0.1828 -0.0216,-0.0296 -0.0116,-0.0328 -0.005,-0.0697 0.006,-0.0709 0.007,-0.035 0.0112,-0.0334 0.0552,-0.1081 0.0101,-0.0278 0.0195,-0.0865 0.032,-0.0925 0.0282,-0.136 0.059,-0.2293 -0.008,-0.0272 -0.004,-0.0351 -0.003,-0.2255 -0.0223,-0.0956 -0.01,-0.0876 -0.0214,-0.0928 -0.0106,-0.1306 -0.01,-0.0313 -0.0504,-0.0871 -0.0626,-0.1433 1.8696,-0.1003 2.4095,-0.5025 0.8605,0.0867 0.1578,0.5448 1.004,1.2048 0.7171,0.5019 1.2334,0.258 0.4015,0.8609 0.1963,0.2179 z" />
    <path
       class="land"
       title="Islington"
       id="LDN-5"
       inkscape:connector-curvature="0"
       d="m 704.1938,482.7666 -0.3321,-0.0568 -0.1704,-0.0336 -0.0612,-0.007 -0.0612,0.004 -0.0973,0.016 -0.1223,0.0274 -0.1001,0.0301 -0.1348,0.0256 -0.1004,0.006 -0.0742,-7e-4 -0.0241,-0.0238 -0.129,-0.0931 -0.0574,-0.0564 -0.024,-0.0328 -0.0157,-0.036 -0.0336,-0.1087 -0.0364,-0.0476 -0.0331,-0.0257 -0.0395,-0.022 -0.0351,-0.0149 -0.1859,-0.0544 -0.0704,-0.0269 -0.0238,-0.0132 -0.033,-0.0342 -0.0166,-0.0284 -0.0108,-0.0405 -0.002,-0.0428 0.009,-0.0885 0.0309,-0.112 0.004,-0.072 -0.0174,-0.0674 -0.0466,-0.098 -0.1261,-0.1988 -0.078,-0.1009 -0.0273,-0.0283 -0.1627,-0.1574 -0.127,-0.0953 -0.1638,-0.1324 -0.0508,-0.0476 -0.0516,-0.0578 -0.0437,-0.0746 -0.0316,-0.0782 -0.009,-0.0388 -0.0132,-0.124 -0.0132,-0.0512 -0.0419,-0.0851 -0.0561,-0.0876 0.1268,-0.0976 0.0632,-0.0381 0.3297,-0.134 0.2895,-0.0727 0.0558,-0.007 0.0579,-0.003 0.1158,0.004 0.0716,0.0128 0.0444,0.0168 0.0399,0.0216 0.0356,0.025 0.0302,0.0275 0.0637,0.0699 0.0917,0.0834 0.0822,0.083 0.174,0.0915 0.2273,0.1257 0.0239,5e-4 0.0414,0.0108 0.0316,0.0144 0.2019,0.1184 0.0752,0.0529 0.0378,0.0205 0.132,0.052 0.0383,0.0225 0.032,0.0255 0.0229,0.0281 0.0107,0.0292 0.002,0.0304 -0.0113,0.0839 0.003,0.0214 0.009,0.0201 0.0244,0.0243 0.0358,0.0191 0.0644,0.0172 0.0867,0.0155 0.1934,0.0193 0.0365,0.007 0.0375,0.0107 0.033,0.0147 0.0273,0.0183 0.0222,0.0207 0.0203,0.0285 0.008,0.0292 -10e-4,0.0301 -0.0109,0.0294 -0.0493,0.0583 -0.2031,0.1775 -0.1259,0.1398 -0.1288,0.1237 -0.0793,0.0595 -0.1831,0.1133 -0.0418,0.0295 -0.0347,0.0316 -0.03,0.0426 -0.0153,0.0306 -0.006,0.0337 0.006,0.0328 0.0133,0.0231 0.0202,0.021 0.0346,0.022 0.1542,0.0552 0.2263,0.0482 0.0709,0.0238 0.0224,0.0128 0.0215,0.0263 0.0341,0.1047 0.0222,0.0404 0.0637,0.0818 0.1205,0.1304 z" />
    <path
       class="land"
       title="Kensington and Chelsea"
       id="LDN-6"
       inkscape:connector-curvature="0"
       d="m 700.737,484.7231 -0.287,0.0351 -0.2307,0.0361 -0.2342,0.0171 -0.1861,0.0173 -0.0545,0.007 -0.0477,0.0107 -0.0609,0.0193 -0.0259,0.0134 -0.1646,0.094 -0.2118,0.1312 -0.1816,-0.1248 -0.0573,-0.0456 -0.0445,-0.0287 -0.0404,-0.0327 -0.3335,-0.2109 -0.1422,-0.0861 -0.1055,-0.088 -0.0348,-0.025 -0.1016,-0.0605 -0.1319,-0.0934 -0.2212,-0.1132 -0.2126,-0.115 -0.0484,-0.055 -0.086,-0.0823 -0.024,-0.0294 -0.0146,-0.0295 -0.0634,-0.1709 -0.007,-0.0354 -0.002,-0.0739 0.0141,-0.2645 -0.003,-0.0371 -0.01,-0.0356 -0.0139,-0.0251 -0.0198,-0.0234 -0.0322,-0.0269 -0.0724,-0.0414 -0.1261,-0.0537 -0.2267,-0.0745 -0.0416,-0.0198 -0.0359,-0.0235 -0.0283,-0.0269 -0.025,-0.0421 -0.0117,-0.0307 -3e-4,-0.0452 0.0181,-0.0683 0.02,-0.1143 0.0118,-0.0377 0.0214,-0.0363 0.0354,-0.0327 0.0456,-0.0304 0.1148,-0.061 0.6459,0.0619 0.0494,0.008 0.0523,0.0143 0.0426,0.0212 0.0295,0.0281 0.0185,0.0337 0.0102,0.042 0.0138,0.1319 0.0152,0.0413 0.0298,0.0399 0.0389,0.0376 0.1101,0.0912 0.1071,0.0623 0.1186,0.0462 0.1814,0.055 0.0427,0.0189 0.0747,0.0465 0.107,0.0989 0.1626,0.1294 0.0785,0.076 0.0441,0.0495 0.0369,0.0511 0.0893,0.1737 0.0468,0.0728 0.0581,0.0529 0.1004,0.0643 0.0581,0.0203 0.0463,0.0109 0.0625,0.008 0.0663,0.003 0.0671,-0.002 0.0661,-0.007 0.0875,-0.0175 0.2127,-0.0689 0.0817,-0.0214 0.047,-0.009 0.065,-5e-4 0.0301,0.006 0.0367,0.0152 0.0291,0.022 0.0277,0.039 0.0366,0.075 0.0563,0.1479 0.0184,0.0312 0.0488,0.0746 0.1708,0.2272 0.1024,0.1675 z" />
    <path
       class="land"
       title="Kingston"
       id="LDN-31"
       inkscape:connector-curvature="0"
       d="m 696.3083,489.5121 -0.1615,0.0663 -0.1033,0.049 -0.1989,0.1186 -0.0876,0.0687 -0.0375,0.0233 -0.0687,0.0292 -0.2876,0.2541 -1.3052,0.6166 -1.2908,1.692 -0.9752,0.2438 -0.1434,-1.1903 0.8748,-1.2045 -0.445,-0.7174 0.1157,-0.1319 0.0655,-0.0746 0.0656,-0.0662 0.0248,-0.0326 0.0328,-0.0683 0.023,-0.0931 0.0308,-0.0975 0.009,-0.072 0.0144,-0.2179 0.006,-0.0356 0.0314,-0.1026 0.0127,-0.1112 0.009,-0.2254 -0.008,-0.0725 -0.0147,-0.0646 -0.0123,-0.1294 -0.01,-0.0305 -0.0356,-0.0617 -0.0366,-0.0904 -0.0381,-0.061 -0.037,-0.0904 -0.0363,-0.0622 -0.0156,-0.0629 -0.006,-0.159 0.022,-0.0498 0.0158,-0.0198 0.0321,-0.0243 0.0678,-0.0295 0.0486,-0.0135 0.0558,-0.007 0.0577,-10e-4 0.0579,0.003 0.0555,0.009 0.0488,0.0144 0.0732,0.03 0.0428,0.0227 0.2038,0.1233 0.1151,0.0524 0.0772,0.0305 0.0458,0.016 0.0684,0.0157 0.0487,0.008 0.071,0.001 0.0859,-0.0114 0.2109,-0.0365 0.1719,-0.0144 0.0555,-0.007 0.1676,-0.0428 0.0373,-0.0122 0.0348,-0.015 0.0316,-0.0179 0.1635,-0.1036 0.2299,-0.1379 0.1325,-0.0731 0.025,-0.0122 0.0295,-0.008 0.0568,-0.007 0.0567,7e-4 0.1257,0.015 0.2086,0.0353 0.1326,0.1965 0.0417,0.0734 0.014,0.0364 0.009,0.0756 -0.007,0.1897 0.003,0.0741 0.008,0.0357 0.0407,0.1097 0.008,0.0378 0.01,0.1166 0.008,0.0378 0.0405,0.1099 0.007,0.0338 0.005,0.1406 0.01,0.0683 0.0402,0.1099 0.0255,0.1426 0.0243,0.0664 0.0151,0.0336 0.0724,0.1021 0.1195,0.1361 0.0752,0.1164 0.0278,0.0289 0.139,0.1098 0.0297,0.0302 0.0593,0.0896 0.0195,0.04 0.0309,0.0913 z" />
    <path
       class="land"
       title="Lambeth"
       id="LDN-7"
       inkscape:connector-curvature="0"
       d="m 703.9708,488.0157 -0.0385,-0.003 -0.1254,-0.021 -0.3573,-0.0729 -0.2022,-0.03 -0.201,-0.0249 -0.1,-0.005 -0.1642,0.0106 -0.1878,0.007 -0.0607,0.006 -0.0883,0.014 -0.0859,0.0178 -0.0693,0.018 -0.0463,0.017 -0.1566,0.0748 -0.1399,0.0912 -0.1516,0.0873 -0.1108,0.0386 -0.3248,0.0993 -0.1504,-0.0383 -0.1293,-0.0268 -0.1811,-0.0269 -0.0339,-0.0114 -0.0242,-0.0162 -0.0103,-0.0183 -7e-4,-0.0205 0.008,-0.0211 0.0176,-0.0215 0.0721,-0.0642 0.1847,-0.232 -0.0135,-0.0568 -0.008,-0.1119 0.0272,-0.6716 -0.009,-0.097 -0.0434,-0.2048 -0.005,-0.1797 -0.008,-0.0418 -0.0216,-0.0404 -0.0274,-0.0231 -0.1803,-0.0885 -0.0402,-0.0311 -0.0389,-0.0394 -0.0224,-0.041 -0.0275,-0.0762 -0.0234,-0.0937 -0.0179,-0.0458 -0.0644,-0.0904 -0.0368,-0.0758 -0.009,-0.0465 0.002,-0.0473 0.0129,-0.0461 0.0474,-0.0737 0.0372,-0.0351 0.0436,-0.033 0.1178,-0.0822 0.1618,-0.0997 0.0796,-0.0454 0.0961,-0.0464 0.149,-0.0872 0.096,-0.0707 0.0802,-0.0806 0.0238,-0.0325 0.0746,-0.1348 0.0324,-0.045 0.0262,-0.026 0.0173,-0.01 0.0614,-0.1209 0.048,-0.1113 0.0441,-0.1375 0.0347,-0.1773 0.0129,-0.0425 0.1369,-0.3111 0.0316,-0.0939 0.0209,-0.0459 0.0218,-0.0306 0.0634,-0.0713 0.034,-0.0273 0.0845,-0.0483 0.0493,-0.0204 0.1319,-0.0392 0.1677,-0.0371 0.0409,0.0152 0.0432,0.0219 0.0428,0.0272 0.0375,0.0304 0.0233,0.0263 0.0171,0.0272 0.0138,0.0397 0.006,0.0404 -5e-4,0.0807 -0.0101,0.0784 -0.0243,0.1015 0,0.0309 0.006,0.0305 0.0236,0.0532 0.0797,0.1105 0.0142,0.04 0.007,0.0853 -6e-4,0.174 0.008,0.0415 0.0118,0.0321 0.0473,0.0981 0.0916,0.1224 0.1174,0.1117 0.1132,0.1272 0.0763,0.1158 0.1147,0.1269 0.0361,0.0334 0.1232,0.0966 0.0342,0.0338 0.0475,0.0737 0.0321,0.0768 0.007,0.0353 -0.004,0.0715 -0.0108,0.0349 -0.0438,0.075 -0.0891,0.099 -0.1714,0.1334 -0.0409,0.0398 -0.0984,0.0812 -0.0294,0.0281 -0.0537,0.0725 -0.04,0.0765 -0.0114,0.0375 -0.006,0.0773 0.005,0.0382 0.012,0.0369 0.0721,0.1026 0.0858,0.0847 0.024,0.0293 0.1438,0.3186 0.0378,0.0755 0.0447,0.0737 0.1365,0.1575 0.1781,0.1903 0.1615,0.2156 -0.0227,0.0146 -0.008,0.008 -0.006,0.0101 -0.005,0.0209 -0.003,0.0413 -0.004,0.0195 -0.005,0.009 -0.028,0.0286 -0.005,0.009 -0.003,0.01 -0.002,0.021 -0.002,0.0583 z" />
    <path
       class="land"
       title="Haringay"
       id="LDN-8"
       inkscape:connector-curvature="0"
       d="m 706.3672,478.3732 -0.1606,0.1534 -0.0546,0.061 -0.1333,0.111 -0.0888,0.099 -0.0325,0.0422 -0.1381,0.1569 -0.0326,0.042 -0.0531,0.0575 -0.0327,0.042 -0.0529,0.0575 -0.0805,0.1008 -0.0443,0.09 -0.0442,0.0602 -0.0452,0.0918 -0.0511,0.0628 -0.1315,0.1901 -0.4688,-0.005 -0.0687,0.002 -0.1858,0.0138 -0.2643,0.006 -0.1819,0.0131 -0.2636,0.005 -0.0643,0.005 -0.2031,0.0232 -0.0855,0.0183 -0.0815,0.0227 -0.0317,0.0111 -0.0404,0.0199 -0.0526,0.0401 -0.0423,0.05 -0.0303,0.0541 -0.019,0.0698 -0.055,0.3494 -0.2273,-0.1257 -0.174,-0.0915 -0.0822,-0.083 -0.0917,-0.0834 -0.0637,-0.0699 -0.0302,-0.0275 -0.0356,-0.025 -0.0399,-0.0216 -0.0444,-0.0168 -0.0716,-0.0128 -0.1158,-0.004 -0.0579,0.003 -0.0558,0.007 -0.2895,0.0727 -0.3297,0.134 -0.0632,0.0381 -0.1268,0.0976 -0.1771,-0.0339 -0.3703,-0.0957 -0.1218,-0.0138 -0.2581,-0.005 -0.2653,10e-4 -0.4457,0.0313 0.0433,-0.1532 0.0125,-0.0713 0.0109,-0.0997 0.0145,-0.0622 0.0438,-0.1268 0.0395,-0.0935 0.0178,-0.0285 0.029,-0.0268 0.0371,-0.0232 0.0431,-0.0187 0.1653,-0.0462 0.1467,-0.025 0.047,-0.0159 0.0435,-0.0204 0.0404,-0.0236 0.0358,-0.0256 0.0285,-0.0281 0.0176,-0.0294 0.0368,-0.0938 0.007,-0.031 10e-4,-0.0316 -0.004,-0.0313 -0.0166,-0.0681 -0.0117,-0.0722 -0.0116,-0.0345 -0.0356,-0.0618 -0.0117,-0.0347 -0.0126,-0.0719 -0.0473,-0.1449 -10e-4,-0.0229 0.004,-0.0226 0.0231,-0.054 0.0333,-0.0512 0.0337,-0.0357 0.0326,-0.0152 0.0266,-0.003 0.0264,0.004 0.0318,0.016 0.0173,0.0167 0.0602,0.079 0.0404,0.0898 0.0398,0.0408 0.0391,0.0313 0.0258,0.0106 0.0293,0.008 0.0437,0.007 0.0322,-10e-4 0.0448,-0.0101 0.0344,-0.0128 0.0311,-0.0163 0.0264,-0.02 0.0216,-0.0227 0.0772,-0.1042 0.0134,-0.0336 0.008,-0.0348 0.0124,-0.1084 0.008,-0.0357 0.0146,-0.0348 0.0663,-0.0872 0.0213,-0.037 0.0329,-0.0837 0.3652,0.0319 0.2926,0.014 0.044,0.005 0.1724,0.0331 0.0509,0.006 0.1066,0.005 1.0944,0.0117 0.1049,-0.006 0.0519,-0.007 0.2533,-0.027 0.1052,-0.002 0.7519,0.008 0.158,0.006 0.0498,0.006 0.1719,0.0336 0.1456,0.0234 0.0951,0.0275 0.1436,0.0263 0.0957,0.0266 0.0487,0.007 0.0512,0.004 0.1568,0.008 0.0505,0.005 0.2034,0.0276 0.4298,0.0726 z" />
    <path
       class="land"
       title="Lewisham"
       id="LDN-9"
       inkscape:connector-curvature="0"
       d="m 709.2288,486.7916 0.2525,0.1931 0.4876,0.3213 0.0989,0.0719 0.0408,0.0382 0.0543,0.0727 0.0174,0.0311 0.01,0.0345 0.002,0.0353 -0.006,0.035 -0.0147,0.0335 -0.0233,0.0289 -0.0504,0.0403 -0.0401,0.0194 -0.032,0.0102 -0.0833,0.0174 -0.0614,0.004 -0.0623,-0.002 -0.0609,-0.008 -0.0492,-0.0116 -0.2352,-0.0646 -0.0953,-0.0298 -0.121,-0.0268 -0.0597,-0.007 -0.1236,-0.004 -0.0611,0.003 -0.0587,0.008 -0.0487,0.0115 -0.1219,0.0403 -0.0546,0.0246 -0.0429,0.0324 -0.1761,0.1543 -0.129,0.1413 -0.0316,0.0275 -0.0753,0.0506 -0.0416,0.0224 -0.0443,0.0193 -0.0472,0.0147 -0.0354,0.006 -0.0868,0.005 -0.0501,-0.002 -0.0492,-0.005 -0.12,-0.0265 -0.122,-0.0427 -0.0956,-0.0389 -0.1887,-0.1143 -0.0475,-0.0246 -0.231,-0.0927 -0.0682,-0.0183 -0.0975,-0.0189 -0.1854,-0.0181 -0.1615,0.006 -0.2277,0.002 -1.2325,-0.0149 -0.1506,-0.0123 -0.3063,-0.0553 -0.1791,-0.036 -0.034,-0.004 0.005,-0.0851 0.0109,-0.0397 0.0119,-0.0257 0.0242,-0.0339 0.0515,-0.0533 0.0426,-0.0345 0.1407,-0.0955 0.1001,-0.0787 0.0318,-0.0272 0.0434,-0.05 0.0311,-0.0532 0.013,-0.0346 0.0283,-0.1072 0.0448,-0.1258 0.0401,-0.0757 0.0522,-0.0686 0.0459,-0.0374 0.0446,-0.029 0.0269,-0.0115 0.0752,-0.0225 0.0841,-0.0169 0.0599,-0.006 0.1867,-0.0113 0.0592,-0.009 0.0484,-0.0135 0.0457,-0.0177 0.0662,-0.0329 0.0538,-0.0408 0.0284,-0.0284 0.0531,-0.0733 0.0881,-0.151 0.0296,-0.0753 -2e-4,-0.0437 -0.0115,-0.03 -0.0263,-0.0407 -0.0287,-0.0263 -0.1314,-0.0895 -0.119,-0.0988 -0.0281,-0.0283 -0.0544,-0.0719 -0.0333,-0.06 -0.0609,-0.1713 -0.008,-0.0415 5e-4,-0.2173 -0.0114,-0.0841 -0.0314,-0.0772 -0.0419,-0.0747 -0.0686,-0.104 -0.0501,-0.109 -0.009,-0.0415 -0.001,-0.0424 0.005,-0.0419 0.0134,-0.04 0.0221,-0.0331 0.033,-0.0277 0.0445,-0.0211 0.121,-0.0348 0.0596,-0.021 0.054,-0.0258 0.0947,-0.0642 0.0415,-0.0212 0.0474,-0.0127 0.0528,-0.007 0.1855,-0.0175 0.0337,-0.008 0.0426,-0.0168 0.0554,-0.0364 0.0761,-0.0725 0.0283,-0.0158 0.0182,-0.004 0.0542,-6e-4 0.0629,0.01 0.1475,0.037 -0.1766,0.2784 -0.008,0.0296 9e-4,0.0278 0.0109,0.0242 0.0522,0.0424 0.0474,0.024 0.0732,0.0245 0.1492,0.0415 0.1614,0.0524 0.0858,0.0394 0.0569,0.0371 0.0208,0.0216 0.0147,0.0238 0.0102,0.0342 0,0.0714 -0.0154,0.0902 0.002,0.0225 0.0194,0.0532 0.0347,0.0515 0.1087,0.1304 0.0682,0.0754 0.0375,0.0314 0.0497,0.0184 0.0375,0.006 0.0259,-10e-4 0.0232,-0.006 0.0359,-0.0272 0.0575,-0.0768 0.0235,-0.0219 0.0515,-0.0216 0.0438,-0.0102 0.0509,-0.004 0.053,0.002 0.0497,0.007 0.2463,0.046 0.2306,0.0245 0.1059,0.017 0.0511,0.0108 0.0424,0.0131 0.0258,0.0106 0.0203,0.0131 0.0164,0.0252 0.003,0.0301 -0.004,0.0211 -0.01,0.0213 -0.0702,0.0884 -0.0184,0.0382 -0.0166,0.0813 -0.001,0.0824 0.006,0.0402 0.0358,0.1261 0.0434,0.0725 0.0269,0.0261 0.0719,0.052 0.0498,0.0263 0.1042,0.0392 0.0784,0.0336 0.0677,0.0408 0.0278,0.0268 0.0136,0.0209 0.0184,0.0439 0.0108,0.0544 -0.022,0.1348 0.005,0.0814 0.0144,0.0395 0.0635,0.0835 0.0134,0.0262 0.006,0.0218 -0.002,0.0108 z" />
    <path
       class="land"
       title="City"
       id="LDN-10"
       inkscape:connector-curvature="0"
       d="m 704.1938,482.7666 0.0524,0.0707 0.0625,0.0703 0.0775,0.0581 0.1079,0.0628 0.0317,0.0261 0.0151,0.0199 0.0117,0.0286 -0.003,0.0213 -0.012,0.0205 -0.0202,0.0184 -0.0305,0.0149 -0.0372,0.0109 -0.2249,0.0286 -0.1131,0.0236 -0.1787,0.0436 -0.0398,0.0208 -0.0346,0.009 -0.09,3e-4 -0.0803,-0.005 -0.1358,-0.0183 -0.2267,-0.0109 -0.345,-0.0465 -0.0881,-0.005 -0.1363,-0.002 -0.0207,-0.0148 -0.007,-0.008 -0.005,-0.0112 -0.003,-0.0234 5e-4,-0.0456 -0.002,-0.011 -0.004,-0.0103 -0.006,-0.007 -0.0234,-0.0213 -0.0181,-0.0196 -0.0607,-0.0801 0.02,-0.0242 0.0217,-0.0214 0.0134,-0.01 0.0299,-0.0165 0.0792,-0.0286 0.0313,-0.0126 0.016,-0.005 0.0536,-0.008 0.014,-0.005 0.009,-0.008 0.0176,-0.036 0.01,-0.0106 0.0106,-0.008 0.006,-0.003 0.0742,7e-4 0.1004,-0.006 0.1348,-0.0256 0.1001,-0.0301 0.1223,-0.0274 0.0973,-0.016 0.0612,-0.004 0.0612,0.007 0.1704,0.0336 0.3321,0.0568 z" />
    <path
       class="land"
       title="Camden"
       id="LDN-11"
       inkscape:connector-curvature="0"
       d="m 702.9398,482.7782 -0.006,0.003 -0.0106,0.008 -0.01,0.0106 -0.0176,0.036 -0.009,0.008 -0.014,0.005 -0.0536,0.008 -0.016,0.005 -0.0313,0.0126 -0.0792,0.0286 -0.0299,0.0165 -0.0134,0.01 -0.0217,0.0214 -0.02,0.0242 -0.0365,0.002 -0.0376,0.007 -0.1774,0.0457 -0.2385,0.0863 -0.0834,0.027 -0.0498,0.0124 -0.0612,0.007 -0.0622,4e-4 -0.0604,-0.006 -0.0486,-0.0102 -0.0648,-0.0199 -0.0695,-0.0389 -0.0616,-0.047 -0.0648,-0.0552 -0.1021,-0.0962 -0.0864,-0.0667 -0.2237,-0.1355 -0.2133,-0.1164 -0.1148,-0.0768 -0.0477,-0.0461 -0.0617,-0.0793 -0.0954,-0.1721 -0.0406,-0.0504 -0.063,-0.0546 -0.0549,-0.0396 -0.0711,-0.0321 -0.1138,-0.0329 -0.0498,-0.0104 -0.1212,-0.0107 -0.1252,5e-4 -0.1145,0.008 -0.101,10e-4 -0.3672,-0.04 -0.0634,-0.002 -0.0616,0.003 -0.0678,0.0109 -0.0405,0.0147 -0.1532,0.0789 -0.2659,0.0892 -0.173,-0.2993 -0.1054,-0.1089 -0.0816,-0.0759 -0.0427,-0.0348 -0.0957,-0.067 -0.3529,-0.2304 -0.1477,-0.1023 -0.1516,-0.1319 -0.179,-0.1471 0.2171,-0.0128 0.1323,-0.0114 0.1046,-0.0141 0.3592,-0.0402 0.1206,-0.027 0.0463,-0.0173 0.0859,-0.044 0.0794,-0.0496 0.0359,-0.0265 0.0312,-0.0275 0.1239,-0.141 0.0294,-0.0282 0.1245,-0.0997 0.0816,-0.0477 0.0832,-0.0342 0.217,-0.0593 0.2115,-0.0521 0.0386,-0.0131 0.0505,-0.0225 0.4457,-0.0313 0.2653,-10e-4 0.2581,0.005 0.1218,0.0138 0.3703,0.0957 0.1771,0.0339 0.0561,0.0876 0.0419,0.0851 0.0132,0.0512 0.0132,0.124 0.009,0.0388 0.0316,0.0782 0.0437,0.0746 0.0516,0.0578 0.0508,0.0476 0.1638,0.1324 0.127,0.0953 0.1627,0.1574 0.0273,0.0283 0.078,0.1009 0.1261,0.1988 0.0466,0.098 0.0174,0.0674 -0.004,0.072 -0.0309,0.112 -0.009,0.0885 0.002,0.0428 0.0108,0.0405 0.0166,0.0284 0.033,0.0342 0.0238,0.0132 0.0704,0.0269 0.1859,0.0544 0.0351,0.0149 0.0395,0.022 0.0331,0.0257 0.0364,0.0476 0.0336,0.1087 0.0157,0.036 0.024,0.0328 0.0574,0.0564 0.129,0.0931 0.0241,0.0238 z" />
    <path
       class="land"
       title="Newham"
       id="LDN-12"
       inkscape:connector-curvature="0"
       d="m 708.9185,483.4569 -0.0582,-0.0878 -0.0628,-0.0795 -0.1315,-0.1354 -0.0323,-0.0263 -0.0377,-0.0231 -0.0424,-0.0192 -0.2159,-0.0592 -0.0424,-0.0181 -0.12,-0.0719 -0.0333,-0.0252 -0.027,-0.0278 -0.0807,-0.1393 -0.0734,-0.0877 -0.0745,-0.1161 -0.1205,-0.136 -0.0389,-0.0503 -0.1474,-0.2038 -0.0424,-0.0742 -0.0737,-0.1517 -0.0324,-0.077 -0.0355,-0.1277 -0.0513,-0.3737 0.0165,-0.0589 0.01,-0.1349 -0.004,-0.2677 0.4694,-0.0115 0.179,-0.0149 0.1889,-0.007 0.0607,-0.006 0.1777,-0.0269 0.0544,-0.005 0.2917,-0.007 0.2015,-0.0161 0.1577,-0.002 0.2129,-0.0299 0.207,-0.0247 0.1802,-0.0121 0.0573,-0.008 0.0402,-0.009 0.0373,-0.0128 0.0422,-0.021 0.0363,-0.0252 0.044,-0.0461 0.0309,-0.0436 0.0863,-0.1018 0.0312,-0.0278 0.0364,-0.026 0.0827,-0.0458 0.0456,-0.0175 0.0344,-0.009 0.0848,-0.0143 0.0358,-0.002 0.0357,0.002 0.0847,0.0146 0.0711,0.0208 0.0336,0.0154 0.0301,0.0188 0.1338,0.1014 0.1328,0.1237 0.0335,0.0257 0.0383,0.0228 0.0427,0.0185 0.0331,0.01 0.0844,0.019 0.1403,0.0164 0.0447,0.007 0.0464,0.0112 0.0567,0.0201 0.0632,0.0483 0.0206,0.0198 0.0274,0.0403 0.0174,0.0301 0.0317,0.0774 0.008,0.0382 0.008,0.1204 0.007,0.0404 0.0678,0.2444 0.0116,0.2915 0.007,0.0369 0.0279,0.0959 0.0123,0.0302 0.0711,0.1028 0.0709,0.078 0.0788,0.0763 0.0325,0.0271 0.0747,0.0504 0.0409,0.0225 0.0436,0.0193 0.1604,0.0502 0.1439,0.0266 0.0478,0.0138 0.115,0.0339 0.1529,0.0556 0.0373,0.0216 0.024,0.0205 0.0352,0.0438 0.0854,0.1354 0.0103,0.0321 0.005,0.0682 -0.008,0.1084 -0.0163,0.0752 -0.017,0.042 -0.0494,0.0912 -0.1137,0.0507 -0.0564,0.029 -0.1546,0.092 -0.0729,0.0561 -0.0727,0.0696 -0.2321,0.1983 -0.061,0.0382 -0.1208,0.0589 -0.0457,0.018 -0.1625,0.0508 -0.1676,0.0423 -0.0551,0.008 -0.1701,0.0158 -0.1781,0.0248 -0.1285,0.008 -0.197,0.004 -0.4667,0.035 -0.3394,0.006 -0.1858,0.0141 -0.2044,0.002 -0.1349,-0.005 -0.0647,-0.007 -0.1224,-0.0235 -0.117,-0.0315 -0.2068,-0.0855 -0.0555,-0.0261 -0.0698,-0.0541 -0.0243,-0.022 -0.0255,-0.0315 -0.0155,-0.0315 -0.014,-0.0489 -0.009,-0.0657 z" />
    <path
       class="land"
       title="Merton"
       id="LDN-13"
       inkscape:connector-curvature="0"
       d="m 701.1126,487.843 -0.1847,0.232 -0.0721,0.0642 -0.0176,0.0215 -0.008,0.0211 7e-4,0.0205 0.0103,0.0183 0.0242,0.0162 0.0339,0.0114 0.1811,0.0269 0.1293,0.0268 0.1504,0.0383 0.1051,0.1973 0.0241,0.0644 0.0155,0.0307 0.0255,0.0295 0.091,0.084 0.0813,0.1007 0.071,0.1034 0.009,0.0277 0.002,0.057 -0.006,0.0284 -0.013,0.0269 -0.0258,0.0294 -0.0601,0.049 -0.0301,0.0198 -0.0697,0.0334 -0.0467,0.0187 -0.0487,0.0157 -0.1453,0.0248 -0.0309,0.0102 -0.0258,0.015 -0.1493,0.1106 -0.0733,0.0567 -0.0343,0.0227 -0.0734,0.0387 -0.0393,0.0135 -0.0513,0.009 -0.0533,0.004 -0.0938,-3e-4 -0.0768,-0.007 -0.0356,-0.007 -0.0368,-0.0133 -0.1351,-0.0719 -0.0721,-0.0307 -0.0471,-0.0163 -0.1056,-0.0242 -0.0951,-0.0279 -0.0488,-0.008 -0.0511,-0.004 -0.1052,-0.002 -0.0519,0.002 -0.0505,0.005 -0.1761,0.029 -0.0453,0.004 -0.1883,0.006 -0.0377,0.003 -0.0359,0.007 -0.0405,0.0132 -0.0379,0.0173 -0.1097,0.0586 -0.0377,0.0176 -0.04,0.0138 -0.0352,0.007 -0.1097,0.017 -0.0977,0.025 -0.1465,0.0221 -0.0975,0.0252 -0.1463,0.0227 -0.0981,0.0248 -0.047,0.006 -0.0493,0.003 -0.1013,0.001 -0.1542,-0.002 -0.1012,-0.004 -0.0487,-0.005 -0.046,-0.008 -0.0316,-0.01 -0.1521,-0.0589 -0.0311,-0.009 -0.0345,-0.005 -0.0353,-2e-4 -0.0346,0.004 -0.0346,0.0105 -0.0328,0.0143 -0.0612,0.0353 -0.048,0.0355 -0.0567,0.0608 -0.0234,0.0204 -0.0275,0.0188 -0.0303,0.0164 -0.0332,0.0131 -0.0339,0.009 -0.0845,0.0154 -0.036,0.002 -0.0611,-0.005 -0.098,-0.016 -0.0359,-0.008 -0.048,-0.0158 -0.0732,-0.0309 -0.0633,-0.0362 -0.0585,-0.0416 -0.2074,-0.1701 -0.0309,-0.0913 -0.0195,-0.04 -0.0593,-0.0896 -0.0297,-0.0302 -0.139,-0.1098 -0.0278,-0.0289 -0.0752,-0.1164 -0.1195,-0.1361 -0.0724,-0.1021 -0.0151,-0.0336 -0.0243,-0.0664 -0.0255,-0.1426 -0.0402,-0.1099 -0.01,-0.0683 -0.005,-0.1406 -0.007,-0.0338 -0.0405,-0.1099 -0.008,-0.0378 -0.01,-0.1166 -0.008,-0.0378 -0.0407,-0.1097 -0.008,-0.0357 -0.003,-0.0741 0.007,-0.1897 -0.009,-0.0756 -0.014,-0.0364 -0.0417,-0.0734 -0.1326,-0.1965 0.2439,0.0228 0.0743,0.002 0.0698,-0.004 0.223,-0.044 0.1001,-0.0239 0.1473,-0.0225 0.2966,-0.0547 0.1246,-0.0195 0.0605,-0.006 0.1865,-0.009 0.0608,-0.005 0.2341,-0.031 0.5086,-0.0399 0.0572,-0.003 0.1158,0.001 0.1709,0.0156 0.187,0.0121 0.0596,0.008 0.0851,0.0188 0.0785,0.0275 0.0824,0.0431 0.0578,0.0381 0.0429,0.0444 0.1027,0.146 0.0796,0.1011 0.0615,0.0543 0.0724,0.0491 0.1035,0.0647 0.0267,0.012 0.2323,0.0959 0.1575,0.0538 0.1597,0.0509 0.1841,0.0499 0.0937,0.0295 0.1177,0.0291 0.1219,0.0235 0.1392,0.0114 0.5265,0.009 0.3662,0.014 z" />
    <path
       class="land"
       title="Brent"
       id="LDN-14"
       inkscape:connector-curvature="0"
       d="m 697.3421,480.9328 0.179,0.1471 0.1516,0.1319 0.1477,0.1023 0.3529,0.2304 0.0957,0.067 0.0427,0.0348 0.0816,0.0759 0.1054,0.1089 0.173,0.2993 -0.0349,0.0275 -0.0887,0.0825 -0.0675,0.056 -0.0305,0.0231 -0.0416,0.026 -0.0454,0.0212 -0.0388,0.0126 -0.0407,0.008 -0.0501,0.004 -0.0502,-10e-4 -0.0486,-0.007 -0.2433,-0.071 -0.0985,-0.0362 -0.1279,-0.0773 -0.0996,-0.0356 -0.0798,-0.0191 -0.0449,-0.004 -0.0424,0.002 -0.0349,0.01 -0.0253,0.0231 -0.0663,0.1192 -0.0251,0.0339 -0.0338,0.0275 -0.0425,0.0257 -0.0475,0.0238 -0.1075,0.0471 -0.3366,-0.1044 -0.1615,-0.0416 -0.1646,-0.0263 -0.252,-0.0326 -0.4039,-0.023 -0.3416,-0.0158 -0.0562,-0.003 -0.1068,-0.0127 -0.0507,-0.004 -0.0511,-3e-4 -0.159,0.0127 -0.0576,0.002 -0.6489,-0.004 -0.1141,0.007 -0.2563,0.0297 -0.0716,10e-4 -0.0332,-0.004 -0.0291,-0.008 -0.0309,-0.0196 -0.0136,-0.0187 -0.0564,-0.1447 -0.0313,-0.0508 -0.0167,-0.0183 -0.0339,-0.0198 -0.0308,-0.009 -0.0347,-0.005 -0.0526,-0.004 -0.11,-2e-4 -0.0543,0.004 -0.052,0.008 -0.0491,0.014 -0.1766,0.0594 -0.2428,0.0456 -0.0344,0.002 -0.0338,-0.004 -0.0449,-0.0127 -0.0738,-0.0355 -0.0277,-0.0191 -0.0217,-0.0219 -0.0153,-0.0244 -0.0109,-0.0353 -0.009,-0.0733 -0.0197,-0.1036 0,-0.1421 -0.002,-0.035 -0.008,-0.0337 -0.0257,-0.0537 -0.0138,-0.0215 -0.0274,-0.0286 -0.0333,-0.0269 -0.075,-0.0523 -0.079,-0.0506 -0.082,-0.0464 -0.0439,-0.0194 -0.1601,-0.0508 -0.144,-0.0266 -0.0968,-0.0266 -0.148,-0.0266 -0.104,-0.0266 -0.1025,-0.0132 -0.1907,-0.0119 0.0421,-0.2179 0.0154,-0.0619 0.0129,-0.0285 0.0426,-0.0614 0.0124,-0.0308 0.0109,-0.0653 0.0108,-0.1331 0.007,-0.0321 0.0122,-0.0307 0.0427,-0.0603 0.0354,-0.0646 0.016,-0.0189 0.033,-0.0215 0.2154,-0.0739 0.0342,-0.0208 0.0172,-0.0186 0.0287,-0.0494 0.005,-0.022 -0.0172,-0.1166 -1e-4,-0.0644 0.01,-0.0631 0.0128,-0.0293 0.024,-0.0298 0.0234,-0.0219 0.0271,-0.0199 0.0405,-0.0204 0.1605,-0.0514 0.1667,-0.0446 0.1464,-0.0227 0.0984,-0.0242 0.148,-0.0194 0.175,-0.0295 0.1482,-0.0196 0.0985,-0.024 0.1471,-0.0225 0.1668,-0.0468 0.0459,-0.0184 0.043,-0.0216 0.0392,-0.0241 0.0334,-0.0256 0.022,-0.0274 0.005,-0.0205 -0.004,-0.0208 -0.0202,-0.0284 -0.0593,-0.0553 -0.0238,-0.0294 -0.0107,-0.0296 -4e-4,-0.0303 0.01,-0.0297 0.0209,-0.0296 0.0598,-0.0707 0.0314,-0.0276 0.1069,-0.0791 0.1106,-0.093 0.0739,-0.0525 0.1996,-0.1263 0.072,-0.0559 0.1069,-0.0915 0.2301,0.1637 0.1159,0.0912 0.1101,0.0803 0.0884,0.0738 0.265,0.1811 0.0637,0.0548 0.0345,0.0412 0.1197,0.1112 0.0771,0.1009 0.0363,0.076 0.008,0.0353 0.002,0.0366 -0.002,0.1866 0.0216,0.1042 0.0103,0.0718 0.0112,0.0347 0.0375,0.0611 0.0346,0.0664 0.051,0.0582 0.0515,0.0477 0.0734,0.0519 0.1204,0.0728 0.0234,0.0123 0.044,0.0106 0.0495,0.004 0.0497,-0.002 0.0439,-0.01 0.1374,-0.0693 0.0565,-0.0142 0.0435,-0.004 0.0354,0.004 0.0351,0.01 0.0425,0.0185 0.0805,0.0476 0.1122,0.0789 0.2089,0.1759 0.0745,0.0575 0.3803,0.253 0.0805,0.063 0.0977,0.0877 0.0476,0.0316 z" />
    <path
       class="land"
       title="Croydon"
       id="LDN-15"
       inkscape:connector-curvature="0"
       d="m 708.5925,492.8506 -0.6799,-0.452 -1.3769,-0.0688 -1.0326,0.7889 -0.9753,-0.0427 -0.9895,0.2725 -0.8892,0.9466 -1.3483,0.1863 -1.1903,-0.7172 -0.6458,-0.8566 0.5573,-0.0103 0.2226,-0.004 0.1501,-0.0136 0.1448,-0.009 0.0448,-0.007 0.0485,-0.0147 0.0791,-0.0355 0.0301,-0.0183 0.0238,-0.0215 0.0173,-0.0238 0.0128,-0.0333 0.006,-0.0351 0.0231,-0.5399 0.006,-0.0709 0.007,-0.0345 0.0135,-0.0327 0.1112,-0.1544 0.0169,-0.0209 0.0306,-0.0273 0.0364,-0.0253 0.1457,-0.0866 0.0276,-0.0111 0.0765,-0.0226 0.0835,-0.0176 0.0491,-0.004 0.0504,4e-4 0.0497,0.005 0.2534,0.0365 0.0499,0.004 0.0501,0 0.0487,-0.005 0.0483,-0.012 0.1069,-0.0361 0.0326,-0.022 0.0155,-0.0194 0.0349,-0.0654 0.0425,-0.0606 0.013,-0.0324 0.0111,-0.0687 0.004,-0.0702 0.002,-0.0704 -0.004,-0.069 -0.007,-0.0328 -0.0433,-0.1096 -0.007,-0.0313 -0.009,-0.1302 -0.007,-0.0313 -0.0436,-0.1092 -0.0257,-0.0929 -0.0455,-0.1088 -0.0303,-0.0918 -0.0382,-0.0608 -0.0346,-0.0908 -0.0368,-0.0613 -0.009,-0.0275 -0.0153,-0.0856 -0.01,-0.0273 -0.0719,-0.1023 -0.0282,-0.0281 -0.098,-0.0816 -0.1326,-0.1229 -0.1922,-0.1553 -0.2206,-0.1491 0.1493,-0.1106 0.0258,-0.015 0.0309,-0.0102 0.1453,-0.0248 0.0487,-0.0157 0.0467,-0.0187 0.0697,-0.0334 0.0301,-0.0198 0.0601,-0.049 0.0258,-0.0294 0.013,-0.0269 0.006,-0.0284 -0.002,-0.057 -0.009,-0.0277 -0.071,-0.1034 -0.0813,-0.1007 -0.091,-0.084 -0.0255,-0.0295 -0.0155,-0.0307 -0.0241,-0.0644 -0.1051,-0.1973 0.3248,-0.0993 0.1108,-0.0386 0.1516,-0.0873 0.1399,-0.0912 0.1566,-0.0748 0.0463,-0.017 0.0693,-0.018 0.0859,-0.0178 0.0883,-0.014 0.0607,-0.006 0.1878,-0.007 0.1642,-0.0106 0.1,0.005 0.201,0.0249 0.2022,0.03 0.3573,0.0729 0.1254,0.021 0.0385,0.003 0.004,0.0272 0.0421,0.1101 0.0927,0.1294 0.168,0.174 0.0462,0.0619 0.0712,0.0775 0.3255,0.3241 0.0597,0.0571 0.0587,0.0473 0.1313,0.091 0.1187,0.0898 0.1606,0.0836 0.0334,0.0135 0.1581,0.0534 0.0674,0.0193 0.0917,0.0323 0.0668,0.0198 0.1208,0.048 0.1478,0.0654 0.1278,0.0616 0.1697,0.0971 0.0858,0.0424 0.0681,0.06 0.0757,0.0596 0.0702,0.0622 0.0824,0.0642 0.0844,0.0792 0.0738,0.0771 0.0479,0.0614 0.022,0.0226 0.0763,0.0657 0.0217,0.0228 0.0785,0.1006 0.0279,0.0427 0.0473,0.0588 0.028,0.0427 0.0473,0.0587 0.028,0.0427 0.0474,0.0588 0.0279,0.0427 0.0477,0.0587 0.0288,0.0425 0.1834,0.1921 0.0931,0.1206 0.0288,0.0425 0.1228,0.1354 0.029,0.0426 0.0479,0.0584 0.0714,0.1022 0.0633,0.1438 0.0412,0.0747 0.0464,0.0588 0.0712,0.1027 0.0349,0.0914 0.0396,0.0621 0.0342,0.0977 0.0816,0.1609 0.2532,0.4995 z" />
    <path
       class="land"
       title="Ealing"
       id="LDN-16"
       inkscape:connector-curvature="0"
       d="m 695.6968,482.2253 0.007,0.3957 0.0204,0.1133 0.0101,0.1173 0.02,0.1115 0.002,0.0409 -0.004,0.0821 -0.0155,0.0805 -0.0495,0.1756 -0.0378,0.0941 -0.0912,0.1529 -0.0461,0.0592 -0.1032,0.099 -0.1209,0.1339 -0.1376,0.0281 -0.1585,0.0454 -0.1304,0.0257 -0.0583,0.005 -0.0589,9e-4 -0.0584,-0.002 -0.0562,-0.006 -0.1198,-0.0272 -0.1581,-0.0538 -0.1331,-0.055 -0.1513,-0.0391 -0.0863,-0.0167 -0.0535,-0.006 -0.1122,-0.005 -0.1698,0.002 -0.1587,0.0143 -0.2082,0.009 -0.0494,0.006 -0.0993,0.0227 -0.1451,0.0252 -0.0479,0.0152 -0.0834,0.0335 -0.0797,0.0386 -0.0817,0.0495 -0.0967,0.0679 -0.0409,0.0232 -0.0727,0.029 -0.049,0.0135 -0.0557,0.008 -0.0584,0.003 -0.1201,6e-4 -0.1814,-0.003 -0.1181,-0.006 -0.0564,-0.007 -0.1734,-0.0319 -0.2273,-0.0227 -0.3507,-0.0486 -0.2218,-0.04 -0.1147,-0.0105 -0.2395,-0.003 -0.1163,0.006 -0.153,0.0172 -0.0493,0.006 -0.0863,0.0169 -0.0351,0.008 -0.1639,0.0477 -0.0945,0.0305 -0.1639,0.0477 -0.1213,0.025 -0.2024,0.0238 -0.0547,0.004 -0.1128,0.002 -0.1135,-0.003 -0.1091,-0.01 -0.1726,-0.0331 -0.1453,-0.0243 -0.0967,-0.0254 -0.0544,-0.009 -0.1134,-0.0122 -0.055,-0.009 -0.098,-0.0247 -0.0553,-0.009 -0.1165,-0.0128 -0.0575,-0.01 -0.3368,-0.0967 0.0696,-0.0987 0.2678,-0.3124 0.1311,-0.12 0.2245,-0.1574 0.1205,-0.1005 0.0792,-0.0758 0.0341,-0.0415 0.133,-0.1336 0.0561,-0.0975 0.0381,-0.0764 0.008,-0.0308 4e-4,-0.0313 -0.008,-0.0303 -0.0187,-0.0304 -0.0533,-0.0717 -0.03,-0.0269 -0.0367,-0.024 -0.0418,-0.0198 -0.1606,-0.05 -0.0489,-0.008 -0.0514,-0.004 -0.1572,-0.008 -0.1531,-0.0177 -0.2088,-0.0106 -0.1528,-0.0181 -0.1052,-0.004 -0.1607,-0.003 -0.1044,-0.006 -0.049,-0.008 -0.161,-0.0501 -0.0427,-0.0197 -0.0383,-0.0237 -0.0332,-0.0263 -0.0469,-0.0491 -0.022,-0.0302 -0.0113,-0.0327 -0.004,-0.034 0.002,-0.0342 0.007,-0.0336 0.0162,-0.0309 0.0289,-0.0272 0.0381,-0.0226 0.0447,-0.0172 0.0351,-0.008 0.1107,-0.017 0.1001,-0.0228 0.045,-0.005 0.1882,-0.007 0.0379,-0.004 0.0362,-0.006 0.0475,-0.0152 0.2045,-0.0967 0.0823,-0.0472 0.095,-0.0713 0.1548,-0.1021 0.1438,-0.1198 0.0352,-0.026 0.0398,-0.0243 0.0433,-0.0225 0.0746,-0.031 0.2178,-0.0854 0.1948,-0.0699 0.3217,-0.0116 0.0635,-0.006 0.185,-0.0277 0.1728,-0.0152 0.0557,-0.007 0.1006,-0.021 0.0596,-0.007 0.1868,-0.009 0.1721,-0.0143 0.0591,-0.002 0.181,10e-4 0.121,0.006 0.5039,0.067 0.1907,0.0119 0.1025,0.0132 0.104,0.0266 0.148,0.0266 0.0968,0.0266 0.144,0.0266 0.1601,0.0508 0.0439,0.0194 0.082,0.0464 0.079,0.0506 0.075,0.0523 0.0333,0.0269 0.0274,0.0286 0.0138,0.0215 0.0257,0.0537 0.008,0.0337 0.002,0.035 0,0.1421 0.0197,0.1036 0.009,0.0733 0.0109,0.0353 0.0153,0.0244 0.0217,0.0219 0.0277,0.0191 0.0738,0.0355 0.0449,0.0127 0.0338,0.004 0.0344,-0.002 0.2428,-0.0456 0.1766,-0.0594 0.0491,-0.014 0.052,-0.008 0.0543,-0.004 0.11,2e-4 0.0526,0.004 0.0347,0.005 0.0308,0.009 0.0339,0.0198 0.0167,0.0183 0.0313,0.0508 0.0564,0.1447 0.0136,0.0187 0.0309,0.0196 0.0291,0.008 0.0332,0.004 0.0716,-0.001 0.2563,-0.0297 0.1141,-0.007 0.6489,0.004 0.0576,-0.002 0.159,-0.0127 0.0511,3e-4 0.0507,0.004 0.1068,0.0127 0.0562,0.003 0.3416,0.0158 z" />
    <path
       class="land"
       title="Hounslow"
       id="LDN-17"
       inkscape:connector-curvature="0"
       d="m 695.2888,483.8813 0.132,0.0518 0.0783,0.0354 0.0643,0.0392 0.0461,0.0436 0.0769,0.1777 0.006,0.0242 0.009,0.2547 -0.0158,0.0646 -0.0275,0.0701 -0.0317,0.1162 -0.0156,0.0355 -0.0461,0.0609 -0.1222,0.1932 -0.0873,0.0997 -0.0325,0.0261 -0.0387,0.0229 -0.0438,0.018 -0.0337,0.009 -0.0847,0.0146 -0.036,0.002 -0.0361,-0.002 -0.1607,-0.0226 -0.0348,-0.008 -0.0456,-0.0174 -0.0425,-0.0212 -0.1459,-0.0842 -0.0918,-0.0687 -0.1889,-0.1304 -0.1242,-0.0999 -0.0372,-0.0252 -0.2339,-0.1271 -0.0444,-0.0187 -0.0677,-0.0193 -0.0839,-0.02 -0.0858,-0.0157 -0.0491,-0.004 -0.0496,4e-4 -0.0486,0.005 -0.0989,0.0226 -0.1444,0.0265 -0.0465,0.0164 -0.0441,0.021 -0.0872,0.0486 -0.4866,0.2908 -0.1938,0.1085 -0.0464,0.0295 -0.099,0.0422 -0.1573,0.0751 -0.0399,0.0242 -0.0282,0.0208 -0.0582,0.0498 -0.0795,0.0771 -0.0779,0.1014 -0.01,0.0296 5e-4,0.0303 0.0108,0.0294 0.0245,0.0291 0.1357,0.1074 0.0199,0.0269 0.003,0.019 -0.006,0.0179 -0.0257,0.021 -0.0266,0.0113 -0.123,0.0416 -0.1686,0.0445 -0.1471,0.0233 -0.0992,0.0231 -0.0556,0.007 -0.1717,0.0137 -0.1763,0.0273 -0.1157,0.007 -0.2985,0.002 -0.1671,0.0152 -0.1163,0.006 -0.167,0.0154 -0.3573,0.004 -0.0568,0.005 -0.1764,0.027 -0.0503,0.005 -0.2091,0.007 -0.0506,0.005 -0.1243,0.0205 -0.0498,0.0112 -0.0693,0.0175 -0.0458,0.0176 -0.0429,0.0215 -0.0795,0.0489 -0.1455,0.1199 -0.1064,0.0796 -0.0314,0.0277 -0.0609,0.071 -0.0214,0.0299 -0.0105,0.03 -10e-4,0.0305 0.009,0.0297 0.0216,0.0297 0.0541,0.0505 0.028,0.0205 0.0657,0.0351 0.0444,0.0195 0.0472,0.0157 0.0512,0.009 0.0543,0.005 0.1125,0.003 0.2278,-0.002 0.0559,-0.002 0.1075,-0.01 0.0559,-0.002 0.0532,0.005 0.0442,0.0107 0.0268,0.009 0.0201,0.0121 0.0121,0.0246 -0.007,0.029 -0.0238,0.027 -0.034,0.0261 -0.081,0.0502 -0.0882,0.045 -0.0466,0.0182 -0.2332,0.0702 -0.0456,0.018 -0.0431,0.0214 -0.0796,0.0485 -0.1215,0.1004 -0.218,0.197 -0.028,0.0284 -0.0816,0.1013 -0.049,0.0914 -0.0243,0.0275 -0.2238,0.1958 -0.0542,0.0476 -0.8209,-0.5821 -1.6207,-0.2722 -0.4447,-0.4017 -0.0573,-0.8181 0.1213,0.0341 0.0426,0.0191 0.0471,0.0157 0.0564,0.0109 0.1161,0.009 0.1149,0.003 0.1126,10e-4 0.1093,-0.003 0.0517,-0.007 0.0253,-0.006 0.0632,-0.0203 0.0375,-0.0147 0.0668,-0.0331 0.0638,-0.0363 0.0651,-0.0399 0.0569,-0.0424 0.0212,-0.0231 0.015,-0.0299 0.007,-0.0319 0.006,-0.0664 0.01,-0.2689 0.0108,-0.0648 0.0128,-0.0303 0.0465,-0.0593 0.0651,-0.0946 0.0165,-0.0208 0.0274,-0.0251 0.0678,-0.046 0.1488,-0.0889 0.0707,-0.0455 0.1176,-0.0977 0.0786,-0.0758 0.0828,-0.1003 0.0388,-0.0656 0.0476,-0.0589 0.0391,-0.0657 0.0506,-0.0582 0.0803,-0.1009 0.044,-0.0901 0.082,-0.1032 0.0675,-0.0756 0.1103,-0.1571 0.3368,0.0967 0.0575,0.01 0.1165,0.0128 0.0553,0.009 0.098,0.0247 0.055,0.009 0.1134,0.0122 0.0544,0.009 0.0967,0.0254 0.1453,0.0243 0.1726,0.0331 0.1091,0.01 0.1135,0.003 0.1128,-0.002 0.0547,-0.004 0.2024,-0.0238 0.1213,-0.025 0.1639,-0.0477 0.0945,-0.0305 0.1639,-0.0477 0.0351,-0.008 0.0863,-0.0169 0.0493,-0.006 0.153,-0.0172 0.1163,-0.006 0.2395,0.003 0.1147,0.0105 0.2218,0.04 0.3507,0.0486 0.2273,0.0227 0.1734,0.0319 0.0564,0.007 0.1181,0.006 0.1814,0.003 0.1201,-6e-4 0.0584,-0.003 0.0557,-0.008 0.049,-0.0135 0.0727,-0.029 0.0409,-0.0232 0.0967,-0.0679 0.0817,-0.0495 0.0797,-0.0386 0.0834,-0.0335 0.0479,-0.0152 0.1451,-0.0252 0.0993,-0.0227 0.0494,-0.006 0.2082,-0.009 0.1587,-0.0143 0.1698,-0.002 0.1122,0.005 0.0535,0.006 0.0863,0.0167 0.1513,0.0391 0.1331,0.055 0.1581,0.0538 0.1198,0.0272 0.0562,0.006 0.0584,0.002 0.0589,-9e-4 0.0583,-0.005 0.1304,-0.0257 0.1585,-0.0454 0.1376,-0.0281 z" />
    <path
       class="land"
       title="Sutton"
       id="LDN-18"
       inkscape:connector-curvature="0"
       d="m 701.1332,489.4168 0.2206,0.1491 0.1922,0.1553 0.1326,0.1229 0.098,0.0816 0.0282,0.0281 0.0719,0.1023 0.01,0.0273 0.0153,0.0856 0.009,0.0275 0.0368,0.0613 0.0346,0.0908 0.0382,0.0608 0.0303,0.0918 0.0455,0.1088 0.0257,0.0929 0.0436,0.1092 0.007,0.0313 0.009,0.1302 0.007,0.0313 0.0433,0.1096 0.007,0.0328 0.004,0.069 -0.002,0.0704 -0.004,0.0702 -0.0111,0.0687 -0.013,0.0324 -0.0425,0.0606 -0.0349,0.0654 -0.0155,0.0194 -0.0326,0.022 -0.1069,0.0361 -0.0483,0.012 -0.0487,0.005 -0.0501,0 -0.0499,-0.004 -0.2534,-0.0365 -0.0497,-0.005 -0.0504,-4e-4 -0.0491,0.004 -0.0835,0.0176 -0.0765,0.0226 -0.0276,0.0111 -0.1457,0.0866 -0.0364,0.0253 -0.0306,0.0273 -0.0169,0.0209 -0.1112,0.1544 -0.0135,0.0327 -0.007,0.0345 -0.006,0.0709 -0.0231,0.5399 -0.006,0.0351 -0.0128,0.0333 -0.0173,0.0238 -0.0238,0.0215 -0.0301,0.0183 -0.0791,0.0355 -0.0485,0.0147 -0.0448,0.007 -0.1448,0.009 -0.1501,0.0136 -0.2226,0.004 -0.5573,0.0103 -0.7597,-1.0081 -0.5308,-0.0289 -1.5919,0.5882 0.0717,-1.2764 -1.2908,-1.0611 0.2876,-0.2541 0.0687,-0.0292 0.0375,-0.0233 0.0876,-0.0687 0.1989,-0.1186 0.1033,-0.049 0.1615,-0.0663 0.2074,0.1701 0.0585,0.0416 0.0633,0.0362 0.0732,0.0309 0.048,0.0158 0.0359,0.008 0.098,0.016 0.0611,0.005 0.036,-0.002 0.0845,-0.0154 0.0339,-0.009 0.0332,-0.0131 0.0303,-0.0164 0.0275,-0.0188 0.0234,-0.0204 0.0567,-0.0608 0.048,-0.0355 0.0612,-0.0353 0.0328,-0.0143 0.0346,-0.0105 0.0346,-0.004 0.0353,2e-4 0.0345,0.005 0.0311,0.009 0.1521,0.0589 0.0316,0.01 0.046,0.008 0.0487,0.005 0.1012,0.004 0.1542,0.002 0.1013,-10e-4 0.0493,-0.003 0.047,-0.006 0.0981,-0.0248 0.1463,-0.0227 0.0975,-0.0252 0.1465,-0.0221 0.0977,-0.025 0.1097,-0.017 0.0352,-0.007 0.04,-0.0138 0.0377,-0.0176 0.1097,-0.0586 0.0379,-0.0173 0.0405,-0.0132 0.0359,-0.007 0.0377,-0.003 0.1883,-0.006 0.0453,-0.004 0.1761,-0.029 0.0505,-0.005 0.0519,-0.002 0.1052,0.002 0.0511,0.004 0.0488,0.008 0.0951,0.0279 0.1056,0.0242 0.0471,0.0163 0.0721,0.0307 0.1351,0.0719 0.0368,0.0133 0.0356,0.007 0.0768,0.007 0.0938,3e-4 0.0533,-0.004 0.0513,-0.009 0.0393,-0.0135 0.0734,-0.0387 0.0343,-0.0227 0.0733,-0.0567 z" />
    <path
       class="land"
       title="Harrow"
       id="LDN-19"
       inkscape:connector-curvature="0"
       d="m 694.1385,478.3761 -0.1069,0.0915 -0.072,0.0559 -0.1996,0.1263 -0.0739,0.0525 -0.1106,0.093 -0.1069,0.0791 -0.0314,0.0276 -0.0598,0.0707 -0.0209,0.0296 -0.01,0.0297 4e-4,0.0303 0.0107,0.0296 0.0238,0.0294 0.0593,0.0553 0.0202,0.0284 0.004,0.0208 -0.005,0.0205 -0.022,0.0274 -0.0334,0.0256 -0.0392,0.0241 -0.043,0.0216 -0.0459,0.0184 -0.1668,0.0468 -0.1471,0.0225 -0.0985,0.024 -0.1482,0.0196 -0.175,0.0295 -0.148,0.0194 -0.0984,0.0242 -0.1464,0.0227 -0.1667,0.0446 -0.1605,0.0514 -0.0405,0.0204 -0.0271,0.0199 -0.0234,0.0219 -0.024,0.0298 -0.0128,0.0293 -0.01,0.0631 10e-5,0.0644 0.0172,0.1166 -0.005,0.022 -0.0287,0.0494 -0.0172,0.0186 -0.0342,0.0208 -0.2154,0.0739 -0.033,0.0215 -0.016,0.0189 -0.0354,0.0646 -0.0427,0.0603 -0.0122,0.0307 -0.007,0.0321 -0.0108,0.1331 -0.0109,0.0653 -0.0124,0.0308 -0.0426,0.0614 -0.0129,0.0285 -0.0154,0.0619 -0.0421,0.2179 -0.5039,-0.067 -0.121,-0.006 -0.181,-10e-4 -0.0591,0.002 -0.1721,0.0143 -0.1868,0.009 -0.0596,0.007 -0.1006,0.021 -0.0557,0.007 -0.1728,0.0152 -0.185,0.0277 -0.0635,0.006 -0.3217,0.0116 -0.0205,-0.1177 -0.0137,-0.1357 -0.0103,-0.0299 -0.041,-0.0613 -0.0319,-0.067 -0.0431,-0.0596 -0.0318,-0.0669 -0.0426,-0.0598 -0.032,-0.0666 -0.0453,-0.0591 -0.0274,-0.0429 -0.0479,-0.0585 -0.0278,-0.043 -0.0479,-0.0585 -0.0276,-0.0427 -0.048,-0.0585 -0.0285,-0.0428 -0.1234,-0.1351 -0.0285,-0.0425 -0.0482,-0.0585 -0.0278,-0.0428 -0.048,-0.0585 -0.0273,-0.043 -0.0437,-0.0596 -0.0337,-0.091 -0.0394,-0.0605 -0.0333,-0.0912 -0.0399,-0.0605 -0.0334,-0.091 -0.0388,-0.0606 -0.01,-0.0276 -0.0139,-0.086 -0.009,-0.0273 -0.0376,-0.0611 -0.009,-0.0275 -0.0119,-0.0863 -0.007,-0.0282 -0.0443,-0.1089 -0.007,-0.0282 -0.0119,-0.0865 -0.009,-0.0273 -0.0375,-0.0611 -0.01,-0.0274 -0.0139,-0.0861 -0.009,-0.0275 -0.0391,-0.0613 -0.032,-0.095 -0.0501,-0.1018 -0.0431,-0.1113 -0.1142,-0.2953 1.3357,0.0192 2.7394,-1.0329 1.4065,-0.2052 0.0163,0.2707 0.0227,0.1014 0.0105,0.0723 0.0118,0.0343 0.0688,0.103 0.0796,0.1004 0.0281,0.0283 0.0637,0.0547 0.0287,0.0281 0.0338,0.0415 0.12,0.111 0.0788,0.1005 0.1784,0.2458 0.0788,0.1008 0.119,0.1114 0.0579,0.0707 0.1262,0.1266 0.1418,0.1173 0.1197,0.1105 z" />
    <path
       class="land"
       title="Hamersham and Fulham"
       id="LDN-20"
       inkscape:connector-curvature="0"
       d="m 699.2336,485.1046 -0.0377,0.1173 -0.0677,0.1478 -0.064,0.1612 -0.033,0.0593 -0.0273,0.0275 -0.0612,0.0425 -0.0773,0.0444 -0.06,0.0189 -0.0475,0.01 -0.0688,0.007 -0.073,0.003 -0.2262,-0.002 -0.149,-0.007 -0.071,-0.008 -0.3184,-0.0573 -0.4007,-0.1027 -0.1922,-0.0709 -0.0476,-0.0273 -0.0655,-0.055 -0.0825,-0.0944 -0.0635,-0.0844 -0.1255,-0.1901 0.0144,-0.009 0.0142,-0.0225 0.002,-0.0538 -0.006,-0.0241 -0.0253,-0.0581 -0.0402,-0.0547 -0.0898,-0.0819 -0.0639,-0.0486 -0.0737,-0.0426 -0.1211,-0.0599 -0.0455,-0.0181 -0.1181,-0.0322 -0.1262,-0.0235 -0.0595,-0.007 -0.1959,-0.006 -0.2386,0.005 -0.009,-0.2547 -0.006,-0.0242 -0.0769,-0.1777 -0.0461,-0.0436 -0.0643,-0.0392 -0.0783,-0.0354 -0.132,-0.0518 0.1209,-0.1339 0.1032,-0.099 0.0461,-0.0592 0.0912,-0.1529 0.0378,-0.0941 0.0495,-0.1756 0.0155,-0.0805 0.004,-0.0821 -0.002,-0.0409 -0.02,-0.1115 -0.0101,-0.1173 -0.0204,-0.1133 -0.007,-0.3957 0.4039,0.023 0.252,0.0326 0.1646,0.0263 0.1615,0.0416 0.3366,0.1044 -0.1148,0.061 -0.0456,0.0304 -0.0354,0.0327 -0.0214,0.0363 -0.0118,0.0377 -0.02,0.1143 -0.0181,0.0683 3e-4,0.0452 0.0117,0.0307 0.025,0.0421 0.0283,0.0269 0.0359,0.0235 0.0416,0.0198 0.2267,0.0745 0.1261,0.0537 0.0724,0.0414 0.0322,0.0269 0.0198,0.0234 0.0139,0.0251 0.01,0.0356 0.003,0.0371 -0.0141,0.2645 0.002,0.0739 0.007,0.0354 0.0634,0.1709 0.0146,0.0295 0.024,0.0294 0.086,0.0823 0.0484,0.055 0.2126,0.115 0.2212,0.1132 0.1319,0.0934 0.1016,0.0605 0.0348,0.025 0.1055,0.088 0.1422,0.0861 0.3335,0.2109 0.0404,0.0327 0.0445,0.0287 0.0573,0.0456 0.1816,0.1248 z" />
    <path
       class="land"
       title="Hillingdon"
       id="LDN-21"
       inkscape:connector-curvature="0"
       d="m 687.2723,477.6657 0.1142,0.2953 0.0431,0.1113 0.0501,0.1018 0.032,0.095 0.0391,0.0613 0.009,0.0275 0.0139,0.0861 0.01,0.0274 0.0375,0.0611 0.009,0.0273 0.0119,0.0865 0.007,0.0282 0.0443,0.1089 0.007,0.0282 0.0119,0.0863 0.009,0.0275 0.0376,0.0611 0.009,0.0273 0.0139,0.086 0.01,0.0276 0.0388,0.0606 0.0334,0.091 0.0399,0.0605 0.0333,0.0912 0.0394,0.0605 0.0337,0.091 0.0437,0.0596 0.0273,0.043 0.048,0.0585 0.0278,0.0428 0.0482,0.0585 0.0285,0.0425 0.1234,0.1351 0.0285,0.0428 0.048,0.0585 0.0276,0.0427 0.0479,0.0585 0.0278,0.043 0.0479,0.0585 0.0274,0.0429 0.0453,0.0591 0.032,0.0666 0.0426,0.0598 0.0318,0.0669 0.0431,0.0596 0.0319,0.067 0.041,0.0613 0.0103,0.0299 0.0137,0.1357 0.0205,0.1177 -0.1948,0.0699 -0.2178,0.0854 -0.0746,0.031 -0.0433,0.0225 -0.0398,0.0243 -0.0352,0.026 -0.1438,0.1198 -0.1548,0.1021 -0.095,0.0713 -0.0823,0.0472 -0.2045,0.0967 -0.0475,0.0152 -0.0362,0.006 -0.0379,0.004 -0.1882,0.007 -0.045,0.005 -0.1001,0.0228 -0.1107,0.017 -0.0351,0.008 -0.0447,0.0172 -0.0381,0.0226 -0.0289,0.0272 -0.0162,0.0309 -0.007,0.0336 -0.002,0.0342 0.004,0.034 0.0113,0.0327 0.022,0.0302 0.0469,0.0491 0.0332,0.0263 0.0383,0.0237 0.0427,0.0197 0.161,0.0501 0.049,0.008 0.1044,0.006 0.1607,0.003 0.1052,0.004 0.1528,0.0181 0.2088,0.0106 0.1531,0.0177 0.1572,0.008 0.0514,0.004 0.0489,0.008 0.1606,0.05 0.0418,0.0198 0.0367,0.024 0.03,0.0269 0.0533,0.0717 0.0187,0.0304 0.008,0.0303 -4e-4,0.0313 -0.008,0.0308 -0.0381,0.0764 -0.0561,0.0975 -0.133,0.1336 -0.0341,0.0415 -0.0792,0.0758 -0.1205,0.1005 -0.2245,0.1574 -0.1311,0.12 -0.2678,0.3124 -0.0696,0.0987 -0.1103,0.1571 -0.0675,0.0756 -0.082,0.1032 -0.044,0.0901 -0.0803,0.1009 -0.0506,0.0582 -0.0391,0.0657 -0.0476,0.0589 -0.0388,0.0656 -0.0828,0.1003 -0.0786,0.0758 -0.1176,0.0977 -0.0707,0.0455 -0.1488,0.0889 -0.0678,0.046 -0.0274,0.0251 -0.0165,0.0208 -0.0651,0.0946 -0.0465,0.0593 -0.0128,0.0303 -0.0108,0.0648 -0.01,0.2689 -0.006,0.0664 -0.007,0.0319 -0.015,0.0299 -0.0212,0.0231 -0.0569,0.0424 -0.0651,0.0399 -0.0638,0.0363 -0.0668,0.0331 -0.0375,0.0147 -0.0632,0.0203 -0.0253,0.006 -0.0517,0.007 -0.1093,0.003 -0.1126,-10e-4 -0.1149,-0.003 -0.1161,-0.009 -0.0564,-0.0109 -0.0471,-0.0157 -0.0426,-0.0191 -0.1213,-0.0341 -1.6637,-0.258 -1.2174,-0.9802 0.658,-0.8556 0.6741,-2.869 -1.1367,-2.1165 0.3766,-0.3503 0.2437,-0.9464 0.5882,-0.0718 0.5736,0.344 1.3912,-0.2294 1.6618,0.0237 z" />
    <path
       class="land"
       title="Southwark"
       id="LDN-22"
       inkscape:connector-curvature="0"
       d="m 703.9332,483.2849 0.4246,0.1412 0.3636,0.1168 0.1171,0.0303 0.1911,0.041 0.0509,0.009 0.0648,0.007 0.0671,0.004 0.2052,10e-4 0.0665,-0.004 0.063,-0.01 0.0483,-0.0138 0.2216,-0.0827 0.0895,-0.0526 0.077,-0.0524 0.0409,-0.0175 0.0661,-0.0171 0.0492,-0.008 0.0542,-0.003 0.0542,0.004 0.0495,0.009 0.0683,0.0178 0.0442,0.0185 0.0409,0.0222 0.071,0.0514 0.0272,0.0286 0.0147,0.0217 0.0277,0.0537 0.0843,0.2975 0.0165,0.0864 0.0257,0.19 -0.1475,-0.037 -0.0629,-0.01 -0.0542,6e-4 -0.0182,0.004 -0.0283,0.0158 -0.0761,0.0725 -0.0554,0.0364 -0.0426,0.0168 -0.0337,0.008 -0.1855,0.0175 -0.0528,0.007 -0.0474,0.0127 -0.0415,0.0212 -0.0947,0.0642 -0.054,0.0258 -0.0596,0.021 -0.121,0.0348 -0.0445,0.0211 -0.033,0.0277 -0.0221,0.0331 -0.0134,0.04 -0.005,0.0419 10e-4,0.0424 0.009,0.0415 0.0501,0.109 0.0686,0.104 0.0419,0.0747 0.0314,0.0772 0.0114,0.0841 -5e-4,0.2173 0.008,0.0415 0.0609,0.1713 0.0333,0.06 0.0544,0.0719 0.0281,0.0283 0.119,0.0988 0.1314,0.0895 0.0287,0.0263 0.0263,0.0407 0.0115,0.03 2e-4,0.0437 -0.0296,0.0753 -0.0881,0.151 -0.0531,0.0733 -0.0284,0.0284 -0.0538,0.0408 -0.0662,0.0329 -0.0457,0.0177 -0.0484,0.0135 -0.0592,0.009 -0.1867,0.0113 -0.0599,0.006 -0.0841,0.0169 -0.0752,0.0225 -0.0269,0.0115 -0.0446,0.029 -0.0459,0.0374 -0.0522,0.0686 -0.0401,0.0757 -0.0448,0.1258 -0.0283,0.1072 -0.013,0.0346 -0.0311,0.0532 -0.0434,0.05 -0.0318,0.0272 -0.1001,0.0787 -0.1407,0.0955 -0.0426,0.0345 -0.0515,0.0533 -0.0242,0.0339 -0.0119,0.0257 -0.0109,0.0397 -0.005,0.0851 -0.0385,-3e-4 -0.0355,0.002 -0.0188,0.003 -0.0527,0.012 -0.0175,0.003 -0.0628,0.004 -0.0146,0.002 -0.0135,0.005 -0.0129,0.006 -0.0649,0.0342 -0.035,0.0126 -0.0408,0.012 -0.1615,-0.2156 -0.1781,-0.1903 -0.1365,-0.1575 -0.0447,-0.0737 -0.0378,-0.0755 -0.1438,-0.3186 -0.024,-0.0293 -0.0858,-0.0847 -0.0721,-0.1026 -0.012,-0.0369 -0.005,-0.0382 0.006,-0.0773 0.0114,-0.0375 0.04,-0.0765 0.0537,-0.0725 0.0294,-0.0281 0.0984,-0.0812 0.0409,-0.0398 0.1714,-0.1334 0.0891,-0.099 0.0438,-0.075 0.0108,-0.0349 0.004,-0.0715 -0.007,-0.0353 -0.0321,-0.0768 -0.0475,-0.0737 -0.0342,-0.0338 -0.1232,-0.0966 -0.0361,-0.0334 -0.1147,-0.1269 -0.0763,-0.1158 -0.1132,-0.1272 -0.1174,-0.1117 -0.0916,-0.1224 -0.0473,-0.0981 -0.0118,-0.0321 -0.008,-0.0415 6e-4,-0.174 -0.007,-0.0853 -0.0142,-0.04 -0.0797,-0.1105 -0.0236,-0.0532 -0.006,-0.0305 0,-0.0309 0.0243,-0.1015 0.0101,-0.0784 5e-4,-0.0807 -0.006,-0.0404 -0.0138,-0.0397 -0.0171,-0.0272 -0.0233,-0.0263 -0.0375,-0.0304 -0.0428,-0.0272 -0.0432,-0.0219 -0.0409,-0.0152 0.0127,-0.008 0.009,-0.007 0.008,-0.008 0.006,-0.01 0.0103,-0.0306 0.005,-0.009 0.0275,-0.029 0.004,-0.009 0.01,-0.0388 0.006,-0.0107 0.0156,-0.0209 0.0595,-0.0685 0.1363,0.002 0.0881,0.005 0.345,0.0465 0.2267,0.0109 0.1358,0.0183 0.0803,0.005 0.09,-3e-4 0.0346,-0.009 0.0398,-0.0208 z" />
    <path
       class="land"
       title="Tower Hamlets"
       id="LDN-23"
       inkscape:connector-curvature="0"
       d="m 708.9185,483.4569 -0.1507,0.0342 -0.1426,0.0283 -0.2427,0.033 -0.0551,0.0127 -0.0497,0.0172 -0.0422,0.022 -0.0244,0.0204 -0.0183,0.0228 -0.0174,0.0409 -0.0127,0.0891 -0.004,0.2272 0.003,0.0442 0.0216,0.1151 0.002,0.0389 -0.007,0.0781 -0.0106,0.0378 -0.0362,0.0774 -0.0372,0.0646 -0.0229,0.0323 -0.0293,0.028 -0.0755,0.0499 -0.0437,0.0212 -0.0753,0.0274 -0.0502,0.0129 -0.0629,0.009 -0.0654,0.003 -0.1327,-10e-4 -0.0653,-0.004 -0.0629,-0.008 -0.0861,-0.0187 -0.0817,-0.026 -0.1438,-0.0602 -0.0469,-0.0231 -0.0626,-0.0404 -0.0795,-0.073 -0.189,-0.2144 -0.0257,-0.19 -0.0165,-0.0864 -0.0843,-0.2975 -0.0277,-0.0537 -0.0147,-0.0217 -0.0272,-0.0286 -0.071,-0.0514 -0.0409,-0.0222 -0.0442,-0.0185 -0.0683,-0.0178 -0.0495,-0.009 -0.0542,-0.004 -0.0542,0.003 -0.0492,0.008 -0.0661,0.0171 -0.0409,0.0175 -0.077,0.0524 -0.0895,0.0526 -0.2216,0.0827 -0.0483,0.0138 -0.063,0.01 -0.0665,0.004 -0.2052,-0.001 -0.0671,-0.004 -0.0648,-0.007 -0.0509,-0.009 -0.1911,-0.041 -0.1171,-0.0303 -0.3636,-0.1168 -0.4246,-0.1412 0.1787,-0.0436 0.1131,-0.0236 0.2249,-0.0286 0.0372,-0.0109 0.0305,-0.0149 0.0202,-0.0184 0.012,-0.0205 0.003,-0.0213 -0.0117,-0.0286 -0.0151,-0.0199 -0.0317,-0.0261 -0.1079,-0.0628 -0.0775,-0.0581 -0.0625,-0.0703 -0.0524,-0.0707 0.1208,-0.1237 0.0506,-0.0686 0.0189,-0.0469 0.01,-0.0477 0.016,-0.1408 0.0207,-0.0665 0.014,-0.0212 0.0284,-0.0265 0.0366,-0.023 0.0334,-0.0157 0.0836,-0.0284 0.1064,-0.0232 0.1156,-0.0323 0.0737,-0.0368 0.1366,-0.0855 0.0664,-0.0274 0.0368,-0.008 0.0688,-0.003 0.2323,0.0296 0.0619,0.004 0.1252,0.001 0.3448,-0.0254 0.1242,-0.021 0.1189,-0.0295 0.091,-0.0366 0.1107,-0.0561 0.2016,-0.1377 0.1172,-0.1003 0.0802,-0.0467 0.0806,-0.0301 0.1664,-0.0451 0.0647,-0.0208 0.1233,-0.0493 0.0703,-0.032 0.0513,0.3737 0.0355,0.1277 0.0324,0.077 0.0737,0.1517 0.0424,0.0742 0.1474,0.2038 0.0389,0.0503 0.1205,0.136 0.0745,0.1161 0.0734,0.0877 0.0807,0.1393 0.027,0.0278 0.0333,0.0252 0.12,0.0719 0.0424,0.0181 0.2159,0.0592 0.0424,0.0192 0.0377,0.0231 0.0323,0.0263 0.1315,0.1354 0.0628,0.0795 0.0582,0.0878 z" />
    <path
       class="land"
       title="Waltham Forest"
       id="LDN-24"
       inkscape:connector-curvature="0"
       d="m 709.1472,480.7887 -0.1577,0.002 -0.2015,0.0161 -0.2917,0.007 -0.0544,0.005 -0.1777,0.0269 -0.0607,0.006 -0.1889,0.007 -0.179,0.0149 -0.4694,0.0115 -0.2102,-0.1558 -0.1612,-0.1133 -0.0831,-0.0473 -0.0721,-0.0307 -0.0473,-0.0159 -0.1203,-0.0254 -0.0491,-0.005 -0.05,-7e-4 -0.05,0.002 -0.1528,0.0171 -0.2262,0.0343 -0.0495,0.003 -0.0496,-6e-4 -0.0485,-0.005 -0.084,-0.0175 -0.0785,-0.0276 -0.043,-0.0209 -0.1512,-0.0816 -0.0397,-0.0245 -0.0365,-0.0262 -0.0856,-0.0721 -0.0593,-0.057 -0.0783,-0.1035 -0.0443,-0.0789 -0.0603,-0.1226 -0.0444,-0.119 0.1315,-0.1901 0.0511,-0.0628 0.0452,-0.0918 0.0442,-0.0602 0.0443,-0.09 0.0805,-0.1008 0.0529,-0.0575 0.0327,-0.042 0.0531,-0.0575 0.0326,-0.042 0.1381,-0.1569 0.0325,-0.0422 0.0888,-0.099 0.1333,-0.111 0.0546,-0.061 0.1606,-0.1534 8e-4,-0.0464 0.006,-0.0367 0.0112,-0.0364 0.0253,-0.0534 0.008,-0.0329 0,-0.0325 -0.008,-0.0313 -0.0356,-0.0628 -0.0153,-0.0565 -0.0106,-0.1155 0.007,-0.0301 0.0177,-0.0436 0.0138,-0.021 0.0287,-0.0274 0.0359,-0.0249 0.0398,-0.0223 0.0981,-0.0429 0.0469,-0.0296 0.1872,-0.1032 0.0769,-0.0509 0.0317,-0.0274 0.0821,-0.1006 0.013,-0.0304 0.007,-0.0319 0.0149,-0.0977 0.009,-0.0315 0.0675,-0.1897 0.009,-0.0658 0.008,-0.1022 0.0113,-0.0689 0.0121,-0.0342 0.0353,-0.06 0.0172,-0.0244 0.0533,-0.056 0.5063,-0.5306 0.1332,0.0434 1.1044,0.4581 0.3207,0.5377 -0.092,0.0446 -0.064,0.0252 -0.0738,0.0236 -0.0482,0.0197 -0.0856,0.0474 -0.0364,0.0265 -0.0288,0.0285 -0.0178,0.0295 -0.0127,0.0308 -0.0248,0.063 -0.007,0.0312 4e-4,0.0311 0.008,0.0303 0.0344,0.0515 0.0291,0.0279 0.1002,0.0814 0.0489,0.048 0.0264,0.0287 0.0727,0.1025 0.0125,0.0302 0.0279,0.0945 0.006,0.0354 -0.004,0.0725 -0.01,0.0355 -0.0479,0.1249 -0.0571,0.1075 -0.0406,0.0908 -0.0423,0.0603 -0.0139,0.0344 -0.008,0.0362 -0.007,0.0743 -0.0233,0.49 0.003,0.0739 0.008,0.0352 0.0437,0.1091 0.0589,0.2192 0.0292,0.0942 0.0118,0.0301 0.0375,0.0611 0.0313,0.0917 0.0443,0.1091 0.008,0.0351 10e-4,0.1116 -0.0144,0.2255 -0.006,0.0369 -0.0331,0.1046 -0.006,0.0377 -0.0297,0.295 z" />
    <path
       class="land"
       title="Wandsworth"
       id="LDN-25"
       inkscape:connector-curvature="0"
       d="m 701.1126,487.843 -0.3662,-0.014 -0.5265,-0.009 -0.1392,-0.0114 -0.1219,-0.0235 -0.1177,-0.0291 -0.0937,-0.0295 -0.1841,-0.0499 -0.1597,-0.0509 -0.1575,-0.0538 -0.2323,-0.0959 -0.0267,-0.012 -0.1035,-0.0647 -0.0724,-0.0491 -0.0615,-0.0543 -0.0796,-0.1011 -0.1027,-0.146 -0.0429,-0.0444 -0.0578,-0.0381 -0.0824,-0.0431 -0.0785,-0.0275 -0.0851,-0.0188 -0.0596,-0.008 -0.187,-0.0121 -0.1709,-0.0156 -0.1158,-0.001 -0.0572,0.003 -0.5086,0.0399 -0.2341,0.031 -0.0608,0.005 -0.1865,0.009 -0.0605,0.006 -0.1246,0.0195 -0.2966,0.0547 -0.1473,0.0225 -0.1001,0.0239 -0.223,0.044 -0.0698,0.004 -0.0743,-0.002 -0.2439,-0.0228 -0.06,-0.1959 -0.0108,-0.0903 0.038,-0.1708 0.0619,-0.1456 0.0108,-0.0377 0.006,-0.0767 -0.005,-0.038 -0.0118,-0.0367 -0.1021,-0.1661 -0.0128,-0.0386 -0.007,-0.0807 0.009,-0.0816 0.0111,-0.0395 0.0661,-0.1403 0.0354,-0.0584 0.0288,-0.0273 0.0352,-0.0244 0.04,-0.0217 0.0781,-0.0267 0.0861,-0.0172 0.1286,-0.008 0.1331,0.003 0.0659,0.004 0.1763,0.0187 0.1176,0.004 0.0577,-0.002 0.0734,-0.009 0.0373,-0.01 0.0341,-0.0136 0.0562,-0.0366 0.0291,-0.0275 0.1798,-0.2482 0.188,-0.1953 0.1255,0.1901 0.0635,0.0844 0.0825,0.0944 0.0655,0.055 0.0476,0.0273 0.1922,0.0709 0.4007,0.1027 0.3184,0.0573 0.071,0.008 0.149,0.007 0.2262,0.002 0.073,-0.003 0.0688,-0.007 0.0475,-0.01 0.06,-0.0189 0.0773,-0.0444 0.0612,-0.0425 0.0273,-0.0275 0.033,-0.0593 0.064,-0.1612 0.0677,-0.1478 0.0377,-0.1173 0.2118,-0.1312 0.1646,-0.094 0.0259,-0.0134 0.0609,-0.0193 0.0477,-0.0107 0.0545,-0.007 0.1861,-0.0173 0.2342,-0.0171 0.2307,-0.0361 0.287,-0.0351 0.26,-0.076 0.0387,-0.005 0.0397,-0.002 0.08,7e-4 0.0388,0.003 0.0368,0.006 0.0245,0.007 0.3845,0.1351 -0.0173,0.01 -0.0262,0.026 -0.0324,0.045 -0.0746,0.1348 -0.0238,0.0325 -0.0802,0.0806 -0.096,0.0707 -0.149,0.0872 -0.0961,0.0464 -0.0796,0.0454 -0.1618,0.0997 -0.1178,0.0822 -0.0436,0.033 -0.0372,0.0351 -0.0474,0.0737 -0.0129,0.0461 -0.002,0.0473 0.009,0.0465 0.0368,0.0758 0.0644,0.0904 0.0179,0.0458 0.0234,0.0937 0.0275,0.0762 0.0224,0.041 0.0389,0.0394 0.0402,0.0311 0.1803,0.0885 0.0274,0.0231 0.0216,0.0404 0.008,0.0418 0.005,0.1797 0.0434,0.2048 0.009,0.097 -0.0272,0.6716 0.008,0.1119 0.0135,0.0568 z" />
    <path
       class="land"
       title="Westminster"
       id="LDN-26"
       inkscape:connector-curvature="0"
       d="m 702.6078,482.9753 0.0607,0.0801 0.0181,0.0196 0.0234,0.0213 0.006,0.007 0.004,0.0103 0.002,0.011 -5e-4,0.0456 0.003,0.0234 0.005,0.0112 0.007,0.008 0.0207,0.0148 -0.0595,0.0685 -0.0156,0.0209 -0.006,0.0107 -0.01,0.0388 -0.004,0.009 -0.0275,0.029 -0.005,0.009 -0.0103,0.0306 -0.006,0.01 -0.008,0.008 -0.009,0.007 -0.0127,0.008 -0.1677,0.0371 -0.1319,0.0392 -0.0493,0.0204 -0.0845,0.0483 -0.034,0.0273 -0.0634,0.0713 -0.0218,0.0306 -0.0209,0.0459 -0.0316,0.0939 -0.1369,0.3111 -0.0129,0.0425 -0.0347,0.1773 -0.0441,0.1375 -0.048,0.1113 -0.0614,0.1209 -0.3845,-0.1351 -0.0245,-0.007 -0.0368,-0.006 -0.0388,-0.003 -0.08,-7e-4 -0.0397,0.002 -0.0387,0.005 -0.26,0.076 -0.1024,-0.1675 -0.1708,-0.2272 -0.0488,-0.0746 -0.0184,-0.0312 -0.0563,-0.1479 -0.0366,-0.075 -0.0277,-0.039 -0.0291,-0.022 -0.0367,-0.0152 -0.0301,-0.006 -0.065,5e-4 -0.047,0.009 -0.0817,0.0214 -0.2127,0.0689 -0.0875,0.0175 -0.0661,0.007 -0.0671,0.002 -0.0663,-0.003 -0.0625,-0.008 -0.0463,-0.0109 -0.0581,-0.0203 -0.1004,-0.0643 -0.0581,-0.0529 -0.0468,-0.0728 -0.0893,-0.1737 -0.0369,-0.0511 -0.0441,-0.0495 -0.0785,-0.076 -0.1626,-0.1294 -0.107,-0.0989 -0.0747,-0.0465 -0.0427,-0.0189 -0.1814,-0.055 -0.1186,-0.0462 -0.1071,-0.0623 -0.1101,-0.0912 -0.0389,-0.0376 -0.0298,-0.0399 -0.0152,-0.0413 -0.0138,-0.1319 -0.0102,-0.042 -0.0185,-0.0337 -0.0295,-0.0281 -0.0426,-0.0212 -0.0523,-0.0143 -0.0494,-0.008 -0.6459,-0.0619 0.1075,-0.0471 0.0475,-0.0238 0.0425,-0.0257 0.0338,-0.0275 0.0251,-0.0339 0.0663,-0.1192 0.0253,-0.0231 0.0349,-0.01 0.0424,-0.002 0.0449,0.004 0.0798,0.0191 0.0996,0.0356 0.1279,0.0773 0.0985,0.0362 0.2433,0.071 0.0486,0.007 0.0502,0.001 0.0501,-0.004 0.0407,-0.008 0.0388,-0.0126 0.0454,-0.0212 0.0416,-0.026 0.0305,-0.0231 0.0675,-0.056 0.0887,-0.0825 0.0349,-0.0275 0.2659,-0.0892 0.1532,-0.0789 0.0405,-0.0147 0.0678,-0.0109 0.0616,-0.003 0.0634,0.002 0.3672,0.04 0.101,-10e-4 0.1145,-0.008 0.1252,-5e-4 0.1212,0.0107 0.0498,0.0104 0.1138,0.0329 0.0711,0.0321 0.0549,0.0396 0.063,0.0546 0.0406,0.0504 0.0954,0.1721 0.0617,0.0793 0.0477,0.0461 0.1148,0.0768 0.2133,0.1164 0.2237,0.1355 0.0864,0.0667 0.1021,0.0962 0.0648,0.0552 0.0616,0.047 0.0695,0.0389 0.0648,0.0199 0.0486,0.0102 0.0604,0.006 0.0622,-4e-4 0.0612,-0.007 0.0498,-0.0124 0.0834,-0.027 0.2385,-0.0863 0.1774,-0.0457 0.0376,-0.007 0.0365,-0.002 z" />
    <path
       class="land"
       title="Redbridge"
       id="LDN-27"
       inkscape:connector-curvature="0"
       d="m 715.5806,477.5271 0.0626,0.1433 0.0504,0.0871 0.01,0.0313 0.0106,0.1306 0.0214,0.0928 0.01,0.0876 0.0223,0.0956 0.003,0.2255 0.004,0.0351 0.008,0.0272 -0.2389,0.0978 -0.0563,0.019 -0.0563,0.0156 -0.1153,0.0236 -0.0482,0.0162 -0.0794,0.0356 -0.0309,0.0181 -0.026,0.0207 -0.0211,0.0227 -0.0765,0.1028 -0.0139,0.0347 -0.011,0.0734 -0.0147,0.3397 -0.0117,0.1112 -0.0315,0.0995 -0.0205,0.1303 -0.0324,0.0991 -0.0176,0.0714 -0.0147,0.0342 -0.0422,0.0605 -0.0397,0.0909 -0.0566,0.1073 -0.0398,0.091 -0.0422,0.0604 -0.0145,0.0342 -0.0285,0.1067 -0.0139,0.0322 -0.0527,0.1599 -0.0156,0.1418 -0.008,0.0345 -0.0151,0.0325 -0.0254,0.0293 -0.0598,0.0476 -0.0306,0.0182 -0.0348,0.0146 -0.0382,0.0114 -0.1245,0.0222 -0.0572,0.004 -0.1166,-0.002 -0.1424,-0.0158 -0.1795,-0.007 -0.0491,10e-4 -0.0483,0.006 -0.13,0.0357 -0.0328,0.0106 -0.0423,0.0193 -0.0365,0.0238 -0.0289,0.0276 -0.0516,0.0891 -0.0281,0.0287 -0.0348,0.0262 -0.0392,0.0237 -0.042,0.0196 -0.0447,0.0128 -0.0334,0.003 -0.0336,-0.002 -0.0461,-0.011 -0.2081,-0.063 -0.0475,-0.007 -0.0488,-9e-4 -0.0482,0.005 -0.1653,0.0439 -0.2188,0.0836 -0.133,0.0462 -0.3315,0.0737 -0.0678,-0.2444 -0.007,-0.0404 -0.008,-0.1204 -0.008,-0.0382 -0.0317,-0.0774 -0.0174,-0.0301 -0.0274,-0.0403 -0.0206,-0.0198 -0.0632,-0.0483 -0.0567,-0.0201 -0.0464,-0.0112 -0.0447,-0.007 -0.1403,-0.0164 -0.0844,-0.019 -0.0331,-0.01 -0.0427,-0.0185 -0.0383,-0.0228 -0.0335,-0.0257 -0.1328,-0.1237 -0.1338,-0.1014 -0.0301,-0.0188 -0.0336,-0.0154 -0.0711,-0.0208 -0.0847,-0.0146 -0.0357,-0.002 -0.0358,0.002 -0.0848,0.0143 -0.0344,0.009 -0.0456,0.0175 -0.0827,0.0458 -0.0364,0.026 -0.0312,0.0278 -0.0863,0.1018 -0.0309,0.0436 -0.044,0.0461 -0.0363,0.0252 -0.0422,0.021 -0.0373,0.0128 -0.0402,0.009 -0.0573,0.008 -0.1802,0.0121 -0.207,0.0247 -0.2129,0.0299 0.0297,-0.295 0.006,-0.0377 0.0331,-0.1046 0.006,-0.0369 0.0144,-0.2255 -10e-4,-0.1116 -0.008,-0.0351 -0.0443,-0.1091 -0.0313,-0.0917 -0.0375,-0.0611 -0.0118,-0.0301 -0.0292,-0.0942 -0.0589,-0.2192 -0.0437,-0.1091 -0.008,-0.0352 -0.003,-0.0739 0.0233,-0.49 0.007,-0.0743 0.008,-0.0362 0.0139,-0.0344 0.0423,-0.0603 0.0406,-0.0908 0.0571,-0.1075 0.0479,-0.1249 0.01,-0.0355 0.004,-0.0725 -0.006,-0.0354 -0.0279,-0.0945 -0.0125,-0.0302 -0.0727,-0.1025 -0.0264,-0.0287 -0.0489,-0.048 -0.1002,-0.0814 -0.0291,-0.0279 -0.0344,-0.0515 -0.008,-0.0303 -4e-4,-0.0311 0.007,-0.0312 0.0248,-0.063 0.0127,-0.0308 0.0178,-0.0295 0.0288,-0.0285 0.0364,-0.0265 0.0856,-0.0474 0.0482,-0.0197 0.0738,-0.0236 0.064,-0.0252 0.092,-0.0446 0.1668,0.2797 2.7394,1.0332 0.6024,-0.0867 0.8606,-0.6594 1.8737,-0.1005 z" />
    <path
       class="land"
       title="Richmond"
       id="LDN-28"
       inkscape:connector-curvature="0"
       d="m 695.3001,487.0793 -0.2086,-0.0353 -0.1257,-0.015 -0.0567,-7e-4 -0.0568,0.007 -0.0295,0.008 -0.025,0.0122 -0.1325,0.0731 -0.2299,0.1379 -0.1635,0.1036 -0.0316,0.0179 -0.0348,0.015 -0.0373,0.0122 -0.1676,0.0428 -0.0555,0.007 -0.1719,0.0144 -0.2109,0.0365 -0.0859,0.0114 -0.071,-0.001 -0.0487,-0.008 -0.0684,-0.0157 -0.0458,-0.016 -0.0772,-0.0305 -0.1151,-0.0524 -0.2038,-0.1233 -0.0428,-0.0227 -0.0732,-0.03 -0.0488,-0.0144 -0.0555,-0.009 -0.0579,-0.003 -0.0577,10e-4 -0.0558,0.007 -0.0486,0.0135 -0.0678,0.0295 -0.0321,0.0243 -0.0158,0.0198 -0.022,0.0498 0.006,0.159 0.0156,0.0629 0.0363,0.0622 0.037,0.0904 0.0381,0.061 0.0366,0.0904 0.0356,0.0617 0.01,0.0305 0.0123,0.1294 0.0147,0.0646 0.008,0.0725 -0.009,0.2254 -0.0127,0.1112 -0.0314,0.1026 -0.006,0.0356 -0.0144,0.2179 -0.009,0.072 -0.0308,0.0975 -0.023,0.0931 -0.0328,0.0683 -0.0248,0.0326 -0.0656,0.0662 -0.0655,0.0746 -0.1157,0.1319 -0.2577,-0.4157 -0.7235,-0.0641 -0.9115,-0.0226 -1.6315,-0.6639 -0.4877,-0.3459 0.0542,-0.0476 0.2238,-0.1958 0.0243,-0.0275 0.049,-0.0914 0.0816,-0.1013 0.028,-0.0284 0.218,-0.197 0.1215,-0.1004 0.0796,-0.0485 0.0431,-0.0214 0.0456,-0.018 0.2332,-0.0702 0.0466,-0.0182 0.0882,-0.045 0.081,-0.0502 0.034,-0.0261 0.0238,-0.027 0.007,-0.029 -0.0121,-0.0246 -0.0201,-0.0121 -0.0268,-0.009 -0.0442,-0.0107 -0.0532,-0.005 -0.0559,0.002 -0.1075,0.01 -0.0559,0.002 -0.2278,0.002 -0.1125,-0.003 -0.0543,-0.005 -0.0512,-0.009 -0.0472,-0.0157 -0.0444,-0.0195 -0.0657,-0.0351 -0.028,-0.0205 -0.0541,-0.0505 -0.0216,-0.0297 -0.009,-0.0297 10e-4,-0.0305 0.0105,-0.03 0.0214,-0.0299 0.0609,-0.071 0.0314,-0.0277 0.1064,-0.0796 0.1455,-0.1199 0.0795,-0.0489 0.0429,-0.0215 0.0458,-0.0176 0.0693,-0.0175 0.0498,-0.0112 0.1243,-0.0205 0.0506,-0.005 0.2091,-0.007 0.0503,-0.005 0.1764,-0.027 0.0568,-0.005 0.3573,-0.004 0.167,-0.0154 0.1163,-0.006 0.1671,-0.0152 0.2985,-0.002 0.1157,-0.007 0.1763,-0.0273 0.1717,-0.0137 0.0556,-0.007 0.0992,-0.0231 0.1471,-0.0233 0.1686,-0.0445 0.123,-0.0416 0.0266,-0.0113 0.0257,-0.021 0.006,-0.0179 -0.003,-0.019 -0.0199,-0.0269 -0.1357,-0.1074 -0.0245,-0.0291 -0.0108,-0.0294 -5e-4,-0.0303 0.01,-0.0296 0.0779,-0.1014 0.0795,-0.0771 0.0582,-0.0498 0.0282,-0.0208 0.0399,-0.0242 0.1573,-0.0751 0.099,-0.0422 0.0464,-0.0295 0.1938,-0.1085 0.4866,-0.2908 0.0872,-0.0486 0.0441,-0.021 0.0465,-0.0164 0.1444,-0.0265 0.0989,-0.0226 0.0486,-0.005 0.0496,-4e-4 0.0491,0.004 0.0858,0.0157 0.0839,0.02 0.0677,0.0193 0.0444,0.0187 0.2339,0.1271 0.0372,0.0252 0.1242,0.0999 0.1889,0.1304 0.0918,0.0687 0.1459,0.0842 0.0425,0.0212 0.0456,0.0174 0.0348,0.008 0.1607,0.0226 0.0361,0.002 0.036,-0.002 0.0847,-0.0146 0.0337,-0.009 0.0438,-0.018 0.0387,-0.0229 0.0325,-0.0261 0.0873,-0.0997 0.1222,-0.1932 0.0461,-0.0609 0.0156,-0.0355 0.0317,-0.1162 0.0275,-0.0701 0.0158,-0.0646 0.2386,-0.005 0.1959,0.006 0.0595,0.007 0.1262,0.0235 0.1181,0.0322 0.0455,0.0181 0.1211,0.0599 0.0737,0.0426 0.0639,0.0486 0.0898,0.0819 0.0402,0.0547 0.0253,0.0581 0.006,0.0241 -0.002,0.0538 -0.0142,0.0225 -0.0144,0.009 -0.188,0.1953 -0.1798,0.2482 -0.0291,0.0275 -0.0562,0.0366 -0.0341,0.0136 -0.0373,0.01 -0.0734,0.009 -0.0577,0.002 -0.1176,-0.004 -0.1763,-0.0187 -0.0659,-0.004 -0.1331,-0.003 -0.1286,0.008 -0.0861,0.0172 -0.0781,0.0267 -0.04,0.0217 -0.0352,0.0244 -0.0288,0.0273 -0.0354,0.0584 -0.0661,0.1403 -0.0111,0.0395 -0.009,0.0816 0.007,0.0807 0.0128,0.0386 0.1021,0.1661 0.0118,0.0367 0.005,0.038 -0.006,0.0767 -0.0108,0.0377 -0.0619,0.1456 -0.038,0.1708 0.0108,0.0903 0.06,0.1959 z" />
    <path
       class="land"
       title="Hackney"
       id="LDN-29"
       inkscape:connector-curvature="0"
       d="m 707.3662,480.8844 0.004,0.2677 -0.01,0.1349 -0.0165,0.0589 -0.0703,0.032 -0.1233,0.0493 -0.0647,0.0208 -0.1664,0.0451 -0.0806,0.0301 -0.0802,0.0467 -0.1172,0.1003 -0.2016,0.1377 -0.1107,0.0561 -0.091,0.0366 -0.1189,0.0295 -0.1242,0.021 -0.3448,0.0254 -0.1252,-10e-4 -0.0619,-0.004 -0.2323,-0.0296 -0.0688,0.003 -0.0368,0.008 -0.0664,0.0274 -0.1366,0.0855 -0.0737,0.0368 -0.1156,0.0323 -0.1064,0.0232 -0.0836,0.0284 -0.0334,0.0157 -0.0366,0.023 -0.0284,0.0265 -0.014,0.0212 -0.0207,0.0665 -0.016,0.1408 -0.01,0.0477 -0.0189,0.0469 -0.0506,0.0686 -0.1208,0.1237 -0.1205,-0.1304 -0.0637,-0.0818 -0.0222,-0.0404 -0.0341,-0.1047 -0.0215,-0.0263 -0.0224,-0.0128 -0.0709,-0.0238 -0.2263,-0.0482 -0.1542,-0.0552 -0.0346,-0.022 -0.0202,-0.021 -0.0133,-0.0231 -0.006,-0.0328 0.006,-0.0337 0.0153,-0.0306 0.03,-0.0426 0.0347,-0.0316 0.0418,-0.0295 0.1831,-0.1133 0.0793,-0.0595 0.1288,-0.1237 0.1259,-0.1398 0.2031,-0.1775 0.0493,-0.0583 0.0109,-0.0294 0.001,-0.0301 -0.008,-0.0292 -0.0203,-0.0285 -0.0222,-0.0207 -0.0273,-0.0183 -0.033,-0.0147 -0.0375,-0.0107 -0.0365,-0.007 -0.1934,-0.0193 -0.0867,-0.0155 -0.0644,-0.0172 -0.0358,-0.0191 -0.0244,-0.0243 -0.009,-0.0201 -0.003,-0.0214 0.0113,-0.0839 -0.002,-0.0304 -0.0107,-0.0292 -0.0229,-0.0281 -0.032,-0.0255 -0.0383,-0.0225 -0.132,-0.052 -0.0378,-0.0205 -0.0752,-0.0529 -0.2019,-0.1184 -0.0316,-0.0144 -0.0414,-0.0108 -0.0239,-5e-4 0.055,-0.3494 0.019,-0.0698 0.0303,-0.0541 0.0423,-0.05 0.0526,-0.0401 0.0404,-0.0199 0.0317,-0.0111 0.0815,-0.0227 0.0855,-0.0183 0.2031,-0.0232 0.0643,-0.005 0.2636,-0.005 0.1819,-0.0131 0.2643,-0.006 0.1858,-0.0138 0.0687,-0.002 0.4688,0.005 0.0444,0.119 0.0603,0.1226 0.0443,0.0789 0.0783,0.1035 0.0593,0.057 0.0856,0.0721 0.0365,0.0262 0.0397,0.0245 0.1512,0.0816 0.043,0.0209 0.0785,0.0276 0.084,0.0175 0.0485,0.005 0.0496,6e-4 0.0495,-0.003 0.2262,-0.0343 0.1528,-0.0171 0.05,-0.002 0.05,7e-4 0.0491,0.005 0.1203,0.0254 0.0473,0.0159 0.0721,0.0307 0.0831,0.0473 0.1612,0.1133 0.2102,0.1558 z" />
    <path
       class="land"
       title="Greenwhich"
       id="LDN-30"
       inkscape:connector-curvature="0"
       d="m 714.0646,482.9791 0.0372,0.202 0.0153,0.1638 0.0469,0.2479 0.007,0.0771 -0.007,0.0779 -0.0304,0.112 -0.0274,0.2113 -0.0313,0.1137 -0.009,0.1228 0.0112,0.0799 0.0421,0.1104 0.0485,0.1577 0.0157,0.094 -0.01,0.0433 -0.02,0.0284 -0.0476,0.0396 -0.0396,0.0193 -0.0319,0.0101 -0.0843,0.0179 -0.0632,0.006 -0.0657,0.002 -0.3369,-0.003 -0.1303,0.005 -0.2039,0.0214 -0.1587,0.0301 -0.0914,0.035 -0.1809,0.0881 -0.1104,0.0839 -0.0817,0.0743 -0.0413,0.0505 -0.0299,0.0533 -0.0198,0.0797 -0.004,0.0823 0.002,0.0408 0.0326,0.1812 0.085,0.3206 0.007,0.0427 -4e-4,0.1771 -0.0145,0.1319 -0.0126,0.0418 -0.0378,0.0768 -0.0794,0.127 -0.1001,0.1225 -0.1815,0.1972 -0.0519,0.0837 -0.0211,0.0637 -0.2834,0.2746 -0.0514,0.0398 -0.1165,0.0649 -0.1375,0.0646 -0.0366,0.0114 -0.0386,0.007 -0.0711,0.001 -0.055,-0.009 -0.0507,-0.0167 -0.0505,-0.028 -0.0455,-0.0329 -0.066,-0.0552 -0.0279,-0.0289 -0.1139,-0.1441 -0.0381,-0.0366 -0.1425,-0.1028 -0.2034,-0.1329 -0.2048,-0.1277 -0.2141,-0.0908 -0.0795,-0.026 -0.0854,-0.0183 -0.0562,-0.007 -0.0586,-0.003 -0.1203,0.005 -0.483,0.0567 0.002,-0.0108 -0.006,-0.0218 -0.0134,-0.0262 -0.0635,-0.0835 -0.0144,-0.0395 -0.005,-0.0814 0.022,-0.1348 -0.0108,-0.0544 -0.0184,-0.0439 -0.0136,-0.0209 -0.0278,-0.0268 -0.0677,-0.0408 -0.0784,-0.0336 -0.1042,-0.0392 -0.0498,-0.0263 -0.0719,-0.052 -0.0269,-0.0261 -0.0434,-0.0725 -0.0358,-0.1261 -0.006,-0.0402 0.001,-0.0824 0.0166,-0.0813 0.0184,-0.0382 0.0702,-0.0884 0.01,-0.0213 0.004,-0.0211 -0.003,-0.0301 -0.0164,-0.0252 -0.0203,-0.0131 -0.0258,-0.0106 -0.0424,-0.0131 -0.0511,-0.0108 -0.1059,-0.017 -0.2306,-0.0245 -0.2463,-0.046 -0.0497,-0.007 -0.053,-0.002 -0.0509,0.004 -0.0438,0.0102 -0.0515,0.0216 -0.0235,0.0219 -0.0575,0.0768 -0.0359,0.0272 -0.0232,0.006 -0.0259,10e-4 -0.0375,-0.006 -0.0497,-0.0184 -0.0375,-0.0314 -0.0682,-0.0754 -0.1087,-0.1304 -0.0347,-0.0515 -0.0194,-0.0532 -0.002,-0.0225 0.0154,-0.0902 0,-0.0714 -0.0102,-0.0342 -0.0147,-0.0238 -0.0208,-0.0216 -0.0569,-0.0371 -0.0858,-0.0394 -0.1614,-0.0524 -0.1492,-0.0415 -0.0732,-0.0245 -0.0474,-0.024 -0.0522,-0.0424 -0.0109,-0.0242 -9e-4,-0.0278 0.008,-0.0296 0.1766,-0.2784 0.189,0.2144 0.0795,0.073 0.0626,0.0404 0.0469,0.0231 0.1438,0.0602 0.0817,0.026 0.0861,0.0187 0.0629,0.008 0.0653,0.004 0.1327,10e-4 0.0654,-0.003 0.0629,-0.009 0.0502,-0.0129 0.0753,-0.0274 0.0437,-0.0212 0.0755,-0.0499 0.0293,-0.028 0.0229,-0.0323 0.0372,-0.0646 0.0362,-0.0774 0.0106,-0.0378 0.007,-0.0781 -0.002,-0.0389 -0.0216,-0.1151 -0.003,-0.0442 0.004,-0.2272 0.0127,-0.0891 0.0174,-0.0409 0.0183,-0.0228 0.0244,-0.0204 0.0422,-0.022 0.0497,-0.0172 0.0551,-0.0127 0.2427,-0.033 0.1426,-0.0283 0.1507,-0.0342 0.009,0.0657 0.014,0.0489 0.0155,0.0315 0.0255,0.0315 0.0243,0.022 0.0698,0.0541 0.0555,0.0261 0.2068,0.0855 0.117,0.0315 0.1224,0.0235 0.0647,0.007 0.1349,0.005 0.2044,-0.002 0.1858,-0.0141 0.3394,-0.006 0.4667,-0.035 0.197,-0.004 0.1285,-0.008 0.1781,-0.0248 0.1701,-0.0158 0.0551,-0.008 0.1676,-0.0423 0.1625,-0.0508 0.0457,-0.018 0.1208,-0.0589 0.061,-0.0382 0.2321,-0.1983 0.0727,-0.0696 0.0729,-0.0561 0.1546,-0.092 0.0564,-0.029 0.1137,-0.0507 0.2616,0.007 0.1287,-0.002 0.1283,-0.0165 0.1144,-0.0106 0.1785,-0.0328 0.29,-0.0348 z" />
    <path
       class="land"
       title="Barnet"
       id="LDN-32"
       inkscape:connector-curvature="0"
       d="m 707.72546,476.03075 -0.47596,0.51357 -0.0534,0.055 -0.0171,0.024 -0.0354,0.059 -0.012,0.0336 -0.0113,0.0677 -0.008,0.10041 -0.009,0.0646 -0.0676,0.1864 -0.009,0.031 -0.0148,0.096 -0.007,0.0313 -0.0129,0.0299 -0.0822,0.0988 -0.0318,0.0269 -0.077,0.05 -0.18754,0.10139 -0.0469,0.0291 -0.0983,0.0422 -0.0398,0.0218 -0.0359,0.0245 -0.0288,0.0269 -0.0137,0.0206 -0.0177,0.0429 -0.007,0.0296 0.0106,0.11349 0.0152,0.0554 0.0357,0.0617 0.008,0.0308 0,0.0319 -0.008,0.0323 -0.0254,0.0524 -0.0112,0.0358 -0.006,0.036 -8e-4,0.0455 -0.43057,-0.0714 -0.20377,-0.0271 -0.0505,-0.005 -0.15708,-0.008 -0.0512,-0.004 -0.0488,-0.007 -0.0959,-0.0261 -0.14385,-0.0259 -0.0953,-0.027 -0.14587,-0.0229 -0.17221,-0.033 -0.0499,-0.006 -0.15828,-0.006 -0.75324,-0.008 -0.1054,0.002 -0.25374,0.0265 -0.0521,0.007 -0.10509,0.006 -1.09635,-0.0116 -0.38324,-0.043 -0.32324,-0.0171 c -1.73409,-1.94542 -0.2459,-2.75095 -1.70391,-3.54021 l 0.49166,-0.42485 2.37941,-0.12643 1.06413,0.25616 3.10278,-9.7e-4 0.53155,0.23684 0.19896,0.60873 -0.30183,0.8179 0.30878,0.0991 z"
        />
  </g>
</svg>
